<svg width="34" height="34" viewBox="0 0 34 34" fill="none" xmlns="http://www.w3.org/2000/svg">
<path d="M18.5841 17.0014L33.6701 1.91419C34.107 1.47724 34.107 0.766909 33.6701 0.329956C33.2332 -0.106998 32.5229 -0.106998 32.086 0.329956L17 15.4172L1.91403 0.327715C1.47488 -0.109238 0.766846 -0.109238 0.327688 0.327715C-0.109229 0.766909 -0.109229 1.475 0.327688 1.91419L15.4137 17.0014L0.327688 32.0886C-0.109229 32.5256 -0.109229 33.2359 0.327688 33.6728C0.547267 33.8924 0.834064 34 1.12086 34C1.40766 34 1.69445 33.8902 1.91403 33.6728L17 18.5856L32.086 33.6728C32.3055 33.8924 32.5923 34 32.8791 34C33.1659 34 33.4527 33.8902 33.6723 33.6728C34.1092 33.2359 34.1092 32.5256 33.6723 32.0886L18.5863 17.0014H18.5841Z" fill="#948369"/>
</svg>
