<svg width="16" height="19" viewBox="0 0 16 19" fill="none" xmlns="http://www.w3.org/2000/svg">
<g clip-path="url(#clip0_173_152)">
<path d="M9.61631 18.9999C9.46518 18.9999 9.3121 18.9566 9.17755 18.8663C8.82167 18.6272 8.73002 18.1489 8.9728 17.7983L14.2028 10.2471C14.5167 9.79376 14.5167 9.20691 14.2028 8.75261L8.97182 1.2014C8.72904 0.850828 8.8207 0.372514 9.17658 0.133357C9.53246 -0.1058 10.018 -0.0155156 10.2608 0.335056L15.4908 7.88626C16.1694 8.86594 16.1694 10.1328 15.4908 11.1125L10.2608 18.6637C10.1097 18.8817 9.86494 18.9989 9.61533 18.9989L9.61631 18.9999ZM1.42423 18.6646L6.65421 11.1134C7.33282 10.1338 7.33282 8.8669 6.65421 7.88722L1.42423 0.335056C1.18145 -0.0155156 0.695894 -0.1058 0.340013 0.133357C-0.0158671 0.372514 -0.107519 0.850828 0.13526 1.2014L5.36524 8.75261C5.6792 9.20691 5.6792 9.7928 5.36524 10.2471L0.13526 17.7983C-0.107519 18.1489 -0.0158671 18.6272 0.340013 18.8663C0.474566 18.9566 0.627643 18.9999 0.77877 18.9999C1.02837 18.9999 1.2731 18.8827 1.42423 18.6646Z" fill="white"/>
</g>
<defs>
<clipPath id="clip0_173_152">
<rect width="16" height="19" fill="white"/>
</clipPath>
</defs>
</svg>
