<svg width="26" height="26" viewBox="0 0 26 26" fill="none" xmlns="http://www.w3.org/2000/svg">
<path d="M1.04275 9.49739C0.467153 9.49739 0 9.03024 0 8.45464V3.9562C0 1.77477 1.77477 0 3.95829 0H8.45673C9.03232 0 9.49948 0.467153 9.49948 1.04275C9.49948 1.61835 9.03232 2.08551 8.45673 2.08551H3.95829C2.92596 2.08551 2.08551 2.92596 2.08551 3.95829V8.45673C2.08551 9.03233 1.61835 9.49948 1.04275 9.49948V9.49739ZM26 22.0438V17.5454C26 16.9698 25.5328 16.5026 24.9572 16.5026C24.3816 16.5026 23.9145 16.9698 23.9145 17.5454V22.0438C23.9145 23.0761 23.074 23.9166 22.0417 23.9166H17.5433C16.9677 23.9166 16.5005 24.3837 16.5005 24.9593C16.5005 25.5349 16.9677 26.0021 17.5433 26.0021H22.0417C24.2232 26.0021 26 24.2273 26 22.0438Z" fill="white"/>
</svg>
