<svg width="18" height="18" viewBox="0 0 18 18" fill="none" xmlns="http://www.w3.org/2000/svg">
<path d="M12.6611 0C15.519 0.000157725 17.8379 2.31982 17.8379 5.17773V12.6611C17.8378 15.519 15.519 17.8377 12.6611 17.8379H5.17773C2.31978 17.8379 9.16761e-05 15.5191 0 12.6611V5.17773C0 2.31973 2.31973 0 5.17773 0H12.6611ZM5.17773 1C2.87201 1 1 2.87201 1 5.17773V12.6611C1.00009 14.9668 2.87207 16.8379 5.17773 16.8379H12.6611C14.9667 16.8377 16.8378 14.9667 16.8379 12.6611V5.17773C16.8379 2.87211 14.9667 1.00016 12.6611 1H5.17773ZM8.91992 4.67676C11.2631 4.6771 13.1611 6.57565 13.1611 8.91895C13.1609 11.262 11.263 13.1598 8.91992 13.1602C6.57656 13.1602 4.67797 11.2622 4.67773 8.91895C4.67773 6.57544 6.57642 4.67676 8.91992 4.67676ZM8.91992 5.67676C7.1287 5.67676 5.67773 7.12772 5.67773 8.91895C5.67797 10.71 7.12885 12.1602 8.91992 12.1602C10.7107 12.1598 12.1609 10.7098 12.1611 8.91895C12.1611 7.12793 10.7109 5.6771 8.91992 5.67676ZM13.5967 2.83789C14.3715 2.83804 15 3.46634 15 4.24121C14.9998 5.01594 14.3714 5.64438 13.5967 5.64453C12.8218 5.64453 12.1935 5.01603 12.1934 4.24121C12.1934 3.46625 12.8217 2.83789 13.5967 2.83789Z" fill="#948369"/>
</svg>
