<svg width="19" height="19" viewBox="0 0 19 19" fill="none" xmlns="http://www.w3.org/2000/svg">
<path d="M2.62742 1.54994C2.71277 1.53317 2.80116 1.52403 2.89108 1.52403H6.1784C6.59904 1.52403 6.94042 1.18265 6.94042 0.762014C6.94042 0.341382 6.59904 0 6.1784 0H2.89108C1.29695 0 0 1.29695 0 2.89261V6.17993C0 6.60057 0.341382 6.94195 0.762013 6.94195C1.18264 6.94195 1.52403 6.60057 1.52403 6.17993V2.89261C1.52403 2.80269 1.53317 2.71429 1.54994 2.62895L6.25461 7.33362C6.40396 7.48298 6.59904 7.55613 6.79411 7.55613C6.98919 7.55613 7.18426 7.48145 7.33362 7.33362C7.6308 7.03644 7.6308 6.55332 7.33362 6.25614L2.62742 1.54994Z" fill="white"/>
<path d="M18.2382 12.0594C17.8175 12.0594 17.4761 12.4008 17.4761 12.8214V16.1087C17.4761 16.1986 17.467 16.287 17.4502 16.3724L12.7456 11.6677C12.4484 11.3705 11.9653 11.3705 11.6681 11.6677C11.3709 11.9649 11.3709 12.448 11.6681 12.7452L16.3728 17.4499C16.2874 17.4666 16.199 17.4758 16.1091 17.4758H12.8218C12.4011 17.4758 12.0598 17.8172 12.0598 18.2378C12.0598 18.6584 12.4011 18.9998 12.8218 18.9998H16.1091C17.7032 18.9998 19.0017 17.7029 19.0017 16.1072V12.8199C19.0017 12.3992 18.6603 12.0579 18.2397 12.0579L18.2382 12.0594Z" fill="white"/>
</svg>
