<svg width="19" height="19" viewBox="0 0 19 19" fill="none" xmlns="http://www.w3.org/2000/svg">
<path d="M15.4545 2.6455C14.6209 1.80378 13.6282 1.13638 12.5341 0.682195C11.44 0.228011 10.2664 -0.0038756 9.08179 4.89954e-05C4.11817 4.89954e-05 0.0727272 4.04549 0.0727272 9.00912C0.0727272 10.6 0.490908 12.1455 1.27272 13.5091L0 18.1818L4.77272 16.9273C6.09089 17.6455 7.57271 18.0273 9.08179 18.0273C14.0454 18.0273 18.0909 13.9818 18.0909 9.01821C18.0909 6.60912 17.1545 4.34549 15.4545 2.6455ZM9.08179 16.5C7.73634 16.5 6.41817 16.1364 5.26362 15.4546L4.9909 15.2909L2.15454 16.0364L2.90908 13.2727L2.72727 12.9909C1.97958 11.7973 1.58265 10.4175 1.58181 9.00912C1.58181 4.88185 4.94544 1.51823 9.0727 1.51823C11.0727 1.51823 12.9545 2.30004 14.3636 3.71822C15.0614 4.41264 15.6144 5.23871 15.9905 6.14851C16.3666 7.05832 16.5583 8.03374 16.5545 9.01821C16.5727 13.1455 13.2091 16.5 9.08179 16.5ZM13.1909 10.9C12.9636 10.7909 11.8545 10.2455 11.6545 10.1637C11.4454 10.0909 11.3 10.0546 11.1454 10.2727C10.9909 10.5 10.5636 11.0091 10.4363 11.1546C10.3091 11.3091 10.1727 11.3273 9.94543 11.2091C9.71816 11.1 8.99089 10.8546 8.13634 10.0909C7.46362 9.49093 7.01816 8.75457 6.8818 8.5273C6.75453 8.30003 6.86362 8.18185 6.9818 8.06366C7.0818 7.96366 7.20907 7.80003 7.31816 7.67276C7.42725 7.54548 7.47271 7.44548 7.54544 7.30003C7.61816 7.14548 7.5818 7.01821 7.52725 6.90912C7.47271 6.80003 7.01816 5.69094 6.83635 5.2364C6.65453 4.80004 6.46362 4.85458 6.32726 4.84549H5.89089C5.73635 4.84549 5.49999 4.90004 5.2909 5.12731C5.0909 5.35458 4.50908 5.90003 4.50908 7.00912C4.50908 8.11821 5.31817 9.19093 5.42726 9.33639C5.53635 9.49093 7.01816 11.7637 9.2727 12.7364C9.80907 12.9727 10.2272 13.1091 10.5545 13.2091C11.0909 13.3818 11.5818 13.3546 11.9727 13.3C12.4091 13.2364 13.3091 12.7546 13.4909 12.2273C13.6818 11.7 13.6818 11.2546 13.6181 11.1546C13.5545 11.0546 13.4181 11.0091 13.1909 10.9Z" fill="#948369"/>
</svg>
