<svg width="130" height="79" viewBox="0 0 130 79" fill="none" xmlns="http://www.w3.org/2000/svg">
<g clip-path="url(#clip0_125_563)">
<path d="M79.0935 19.7739C78.8409 18.7561 78.4743 17.768 78.0086 16.8244C77.5479 15.8808 76.998 14.9767 76.3639 14.1368C75.7348 13.2969 75.0462 12.5015 74.2981 11.7703C73.5501 11.0441 72.7624 10.3623 71.9401 9.73486C71.1177 9.10742 70.2607 8.52939 69.3888 7.99088C68.512 7.45731 67.6153 6.96326 66.7038 6.5038C65.7923 6.04434 64.8659 5.62934 63.9296 5.2341C62.9934 4.8438 62.0472 4.48315 61.096 4.1472C60.1449 3.81125 59.1838 3.50494 58.2228 3.21839C57.2568 2.93185 56.2907 2.67494 55.3198 2.42792C54.3488 2.18584 53.3729 1.96352 52.392 1.76096C51.4161 1.5584 50.4353 1.37066 49.4544 1.19774L46.8486 0.738281L47.3341 3.30732C47.6611 5.0513 48.0326 6.79529 48.4586 8.52445C48.8896 10.2536 49.3751 11.9778 49.93 13.6823C50.2074 14.537 50.5046 15.3818 50.8266 16.2266C51.1437 17.0714 51.4805 17.9064 51.8471 18.7364C52.2137 19.5664 52.6001 20.3865 53.0212 21.1967C53.4423 22.007 53.8931 22.8073 54.3785 23.5929C54.869 24.3784 55.3941 25.1442 55.9687 25.8852C56.5434 26.6263 57.1676 27.3427 57.8611 28.0146C58.5547 28.6865 59.3126 29.309 60.1647 29.8524C60.3777 29.9858 60.5957 30.1143 60.8186 30.2378C60.9325 30.2971 61.0415 30.3613 61.1604 30.4156L61.3338 30.4996C61.3933 30.5293 61.4577 30.5589 61.5221 30.5885L61.6162 30.633L61.6608 30.6528L61.7004 30.6676L61.854 30.7318L61.9134 30.7565L61.958 30.7713L62.0422 30.8059L62.2106 30.8702C62.4385 30.9541 62.6664 31.0381 62.8992 31.1122C63.8306 31.4136 64.7966 31.6211 65.7824 31.7199C66.7682 31.8187 67.7689 31.8039 68.7547 31.6656C69.7406 31.5272 70.7066 31.2703 71.628 30.9047C72.0887 30.7219 72.5395 30.5095 72.9755 30.2674C73.1934 30.1439 73.4114 30.0155 73.6244 29.8771C73.7334 29.808 73.8374 29.7338 73.9464 29.6548C74.0009 29.6153 74.0554 29.5758 74.1099 29.5362L74.1941 29.472L74.2981 29.3831L74.6796 29.0718L74.7638 28.6173L74.7787 28.5333L74.7886 28.4641L74.8084 28.3357C74.8183 28.2517 74.8332 28.1677 74.8431 28.0837C74.8629 27.9207 74.8777 27.7577 74.8926 27.5946C74.9174 27.2686 74.9322 26.9474 74.9421 26.6263C74.9521 25.984 74.9273 25.3467 74.8678 24.7094C74.8084 24.0721 74.7044 23.4446 74.5706 22.8221C74.4368 22.1996 74.2585 21.5821 74.0504 20.9793C73.8374 20.3766 73.5897 19.7887 73.3024 19.2205C73.0151 18.6524 72.6881 18.104 72.3265 17.5803C71.9649 17.0566 71.5735 16.5576 71.1524 16.0932C70.7313 15.6239 70.2706 15.1941 69.7951 14.784C69.5573 14.5765 69.3096 14.3888 69.0668 14.1961C68.8142 14.0133 68.5665 13.8256 68.3039 13.6576C68.0513 13.4797 67.7838 13.3216 67.5212 13.1635C67.2537 13.0104 66.9862 12.8572 66.7137 12.7189C66.1738 12.4324 65.614 12.1804 65.0542 11.9482C64.7718 11.8395 64.4894 11.7209 64.2021 11.6271C64.0585 11.5777 63.9197 11.5233 63.7761 11.4739L63.3451 11.3356C63.0578 11.2417 62.7655 11.1627 62.4782 11.0787C62.1859 10.9996 61.8936 10.9305 61.6063 10.8563C61.314 10.7921 61.0217 10.7279 60.7294 10.6686C60.4372 10.6143 60.1399 10.555 59.8476 10.5105C59.5504 10.4661 59.2581 10.4166 58.9609 10.3771C58.6637 10.3425 58.3714 10.2981 58.0742 10.2684C57.7769 10.2388 57.4797 10.2091 57.1874 10.1844L56.3007 10.1252L57.1676 10.3228L58.0296 10.5352C58.3169 10.6093 58.5993 10.6884 58.8816 10.7625C59.164 10.8415 59.4464 10.9305 59.7287 11.0095C60.0111 11.0984 60.2885 11.1923 60.566 11.2763C60.8434 11.3702 61.1158 11.469 61.3933 11.5678C61.9382 11.7753 62.4782 11.9927 63.0082 12.2298L63.4045 12.4077C63.5333 12.4669 63.6621 12.5361 63.7959 12.5954C64.0584 12.7189 64.3111 12.8572 64.5637 12.9906C65.069 13.2673 65.5644 13.5538 66.0351 13.875C66.2728 14.0281 66.5007 14.1961 66.7336 14.3641C66.8475 14.4481 66.9565 14.537 67.0704 14.621C67.1844 14.705 67.2933 14.7939 67.4023 14.8828C67.6203 15.0557 67.8333 15.2484 68.0414 15.4312C68.2445 15.6239 68.4476 15.8116 68.6408 16.0142C69.0272 16.4144 69.3888 16.8343 69.7207 17.274C70.0527 17.7137 70.3548 18.1682 70.6273 18.6475C70.8948 19.1217 71.1376 19.6108 71.3407 20.1148C71.5487 20.6187 71.7221 21.1325 71.8658 21.6562C72.1531 22.7036 72.2968 23.7855 72.3314 24.8675C72.3513 25.406 72.3364 25.9495 72.2918 26.488C72.272 26.7547 72.2423 27.0215 72.2026 27.2834C72.1927 27.3476 72.1828 27.4118 72.1729 27.4761C72.163 27.481 72.1482 27.4909 72.1382 27.4958C71.9797 27.5897 71.8162 27.6786 71.6528 27.7626C71.3209 27.9355 70.9691 28.0837 70.6174 28.2122C69.904 28.4691 69.161 28.642 68.4129 28.7211C67.6599 28.8001 66.902 28.7853 66.149 28.6914C65.396 28.5926 64.6529 28.4049 63.9197 28.148C63.7364 28.0837 63.5581 28.0146 63.3748 27.9405L63.2411 27.8861L63.1717 27.8565H63.1568C63.1568 27.8565 63.1469 27.8466 63.1519 27.8466H63.142L63.1222 27.8318L62.9735 27.7626L62.9389 27.7478L62.9091 27.733L62.8547 27.7083L62.7457 27.6539L62.6268 27.5897C62.5475 27.5502 62.4683 27.5008 62.389 27.4563C62.2305 27.3624 62.0769 27.2686 61.9233 27.1648C61.309 26.7498 60.7195 26.2459 60.1696 25.6876C59.6198 25.1293 59.1046 24.5167 58.624 23.8646C58.1435 23.2174 57.6927 22.5307 57.2716 21.8242C56.8505 21.1177 56.4542 20.3865 56.0876 19.6405C55.7161 18.8945 55.3743 18.1287 55.0473 17.358C54.3934 15.8067 53.8287 14.2109 53.3234 12.5954C52.8181 10.9749 52.3722 9.32974 51.9809 7.66481C51.7926 6.87433 51.6192 6.08386 51.4508 5.28351C51.5152 5.29833 51.5796 5.30821 51.644 5.32303C52.5852 5.52065 53.5166 5.74297 54.4479 5.97023C55.3792 6.19749 56.3007 6.44451 57.2221 6.70142C58.1386 6.96326 59.055 7.23499 59.9566 7.53142C60.8582 7.82784 61.7549 8.13909 62.6367 8.47504C63.5234 8.811 64.3904 9.17165 65.2523 9.55206C65.6784 9.74474 66.1044 9.94236 66.5255 10.1499C66.9466 10.3524 67.3627 10.5698 67.7739 10.7872C68.1801 11.0095 68.5913 11.2368 68.9876 11.4739C69.3888 11.711 69.7802 11.9581 70.1666 12.21C70.9394 12.714 71.6825 13.2624 72.3859 13.8503C73.0844 14.4431 73.7532 15.0656 74.3576 15.7425C74.962 16.4193 75.5217 17.1357 76.0023 17.9064C76.245 18.2917 76.463 18.687 76.6711 19.0921C76.8791 19.4972 77.0674 19.9122 77.2308 20.3371C77.5578 21.1868 77.8154 22.0761 77.9739 22.9901C78.0532 23.4446 78.1126 23.909 78.1523 24.3734C78.1919 24.8379 78.2018 25.3121 78.2018 25.7815C78.2018 26.2558 78.1721 26.73 78.1275 27.2043C78.0829 27.6786 78.0185 28.1578 77.9293 28.6321C77.8451 29.1064 77.7411 29.5807 77.6123 30.05C77.5528 30.2872 77.4835 30.5194 77.4092 30.7516C77.3349 30.9838 77.2606 31.216 77.1664 31.4482C77.4488 31.0431 77.6916 30.6132 77.9194 30.1686C78.1424 29.724 78.3455 29.2694 78.5238 28.8001C78.7021 28.3357 78.8607 27.8565 78.9944 27.3723C79.1282 26.8881 79.2372 26.3941 79.3313 25.8951C79.4205 25.3961 79.4799 24.8873 79.5195 24.3784C79.5542 23.8695 79.5691 23.3508 79.5493 22.837C79.5146 21.8044 79.3759 20.7669 79.1133 19.7541" fill="#E7E4DC"/>
<path d="M83.1507 5.34279C83.1507 7.55612 81.3525 9.34456 79.1381 9.34456C76.9237 9.34456 75.1254 7.55118 75.1254 5.34279C75.1254 3.13441 76.9237 1.34102 79.1381 1.34102C81.3525 1.34102 83.1507 3.13441 83.1507 5.34279Z" fill="#E7E4DC"/>
<path d="M10.314 57.9591C11.4138 57.3119 12.2064 56.5659 12.6919 55.726V49.9259C9.81861 50.4941 7.61413 51.3142 6.08338 52.3813C4.55263 53.4485 3.78477 54.649 3.78477 55.973C3.78477 56.9463 4.08201 57.6824 4.68143 58.1814C5.27589 58.6804 6.10319 58.9324 7.16333 58.9324C8.16401 58.9324 9.21919 58.6063 10.314 57.9591ZM1.40195 59.3968C0.465666 58.6261 0 57.5787 0 56.2546C0 54.2785 1.03536 52.658 3.11104 51.3883C5.18672 50.1186 8.37703 49.1848 12.6919 48.587V46.4775C12.6919 45.0991 12.2559 44.0566 11.389 43.3551C10.5221 42.6535 9.36781 42.2978 7.93118 42.2978C6.90077 42.2978 5.94962 42.5004 5.08269 42.9055C4.21576 43.3106 3.77982 43.7454 3.77982 44.2049C3.77982 44.3679 3.80459 44.5704 3.85908 44.8125C3.91357 45.0546 3.93834 45.2473 3.93834 45.3807C3.93834 45.7858 3.8145 46.1366 3.57175 46.433C3.32901 46.7294 2.9327 46.8776 2.39273 46.8776C1.93202 46.8776 1.54561 46.7097 1.23352 46.3688C0.921424 46.0328 0.767853 45.5536 0.767853 44.9311C0.767853 43.5774 1.54066 42.53 3.08627 41.789C4.63189 41.0479 6.51437 40.6724 8.73866 40.6724C11.2305 40.6724 13.1575 41.2208 14.5149 42.3176C15.8723 43.4144 16.546 44.9064 16.546 46.7986V57.7911C16.546 58.6557 16.8432 59.0905 17.4426 59.0905C17.8241 59.0905 18.3096 58.9818 18.909 58.7644V59.4561C18.5028 59.8068 17.9876 60.0786 17.3634 60.2663C16.7392 60.454 16.1051 60.5479 15.4512 60.5479C14.718 60.5479 14.0839 60.3997 13.539 60.1033C12.9941 59.8068 12.7265 59.3177 12.7265 58.6409V57.4255C11.6416 58.6162 10.4428 59.4314 9.12507 59.8809C7.80733 60.3256 6.52923 60.5479 5.28085 60.5479C3.62625 60.5479 2.33328 60.1625 1.397 59.3918" fill="#E7E4DC"/>
<path d="M44.7435 59.1349V60.1477H35.2667V59.1349H35.9157C36.5399 59.1349 37.0402 59.0262 37.4217 58.8089C37.8031 58.5915 37.9914 58.2703 37.9914 57.8356V46.68C37.9914 45.2473 37.6248 44.1653 36.8916 43.4341C36.1584 42.703 35.1132 42.3374 33.7608 42.3374C32.8096 42.3374 31.8981 42.5745 31.0163 43.0488C30.1345 43.5231 29.4112 44.2296 28.8416 45.1781C28.2719 46.1267 27.9895 47.263 27.9895 48.587V57.8356C27.9895 58.2703 28.1876 58.5915 28.579 58.8089C28.9704 59.0262 29.4806 59.1349 30.1048 59.1349H30.7141V60.1477H21.2373V59.1349H22.0101C22.6591 59.1349 23.1842 59.0262 23.5756 58.8089C23.9669 58.5915 24.1651 58.2703 24.1651 57.8356V44.2049C24.1651 43.6367 23.8827 43.3551 23.313 43.3551C23.0703 43.3551 22.674 43.4638 22.134 43.6812L21.8467 42.7869L26.9739 40.959H27.9895V44.1209C28.5839 43.1476 29.5004 42.3275 30.7339 41.6655C31.9675 41.0034 33.3446 40.6724 34.8605 40.6724C37.1096 40.6724 38.8335 41.1714 40.0274 42.1743C41.2213 43.1772 41.8158 44.5161 41.8158 46.1909V57.8356C41.8158 58.2703 42.0189 58.5915 42.4251 58.8089C42.8313 59.0262 43.3614 59.1349 44.0104 59.1349H44.7435Z" fill="#E7E4DC"/>
<path d="M59.5111 50.5978C60.269 49.6937 60.6505 48.5228 60.6505 47.0901C60.6505 45.6573 60.269 44.4865 59.5111 43.5824C58.7531 42.6782 57.6237 42.2237 56.1325 42.2237C54.6414 42.2237 53.5615 42.6782 52.8184 43.5824C52.0703 44.4865 51.6988 45.6573 51.6988 47.0901C51.6988 48.5228 52.0703 49.6937 52.8184 50.5978C53.5615 51.5019 54.6711 51.9564 56.1325 51.9564C57.5939 51.9564 58.7482 51.5019 59.5111 50.5978ZM50.9854 60.0884C50.6436 60.6714 50.4752 61.2149 50.4752 61.7336C50.4752 62.8156 50.9904 63.6307 52.0208 64.189C53.0512 64.7423 54.4234 65.019 56.1276 65.019C58.0546 65.019 59.5705 64.6929 60.6852 64.0457C61.7948 63.3985 62.3546 62.4747 62.3546 61.289C62.3546 60.4244 62.0623 59.7871 61.4827 59.382C60.8982 58.9768 59.9322 58.7743 58.5748 58.7743H52.6747C51.8871 59.0707 51.3273 59.5104 50.9854 60.0934M67.3779 41.1615C67.8534 41.4876 68.0912 41.8779 68.0912 42.3374C68.0912 42.7721 67.9773 43.1081 67.7445 43.3502C67.5116 43.5922 67.1797 43.7157 66.7487 43.7157C66.4515 43.7157 66.2286 43.6614 66.0799 43.5527C65.9313 43.444 65.7877 43.281 65.6539 43.0636C65.4904 42.8215 65.322 42.6387 65.1437 42.5152C64.9653 42.3917 64.7028 42.3324 64.351 42.3324C63.9448 42.3324 63.4148 42.5103 62.7658 42.861C63.8755 43.9183 64.4353 45.3214 64.4353 47.0802C64.4353 49.1107 63.7021 50.6769 62.2407 51.7885C60.7743 52.8951 58.7432 53.4534 56.1375 53.4534C54.4581 53.4534 53.0066 53.2113 51.783 52.7222C50.9706 53.32 50.5644 53.9376 50.5644 54.5897C50.5644 55.1035 50.8071 55.5234 51.2975 55.8446C51.788 56.1706 52.4766 56.3337 53.3732 56.3337H59.9223C61.5769 56.3337 62.954 56.6943 64.0489 57.4107C65.1486 58.1271 65.6935 59.2041 65.6935 60.6368C65.6935 62.529 64.8266 63.9766 63.0928 64.9795C61.3589 65.9775 58.986 66.4814 55.974 66.4814C53.4228 66.4814 51.4115 66.0713 49.9352 65.2413C48.459 64.4163 47.7208 63.2355 47.7208 61.6941C47.7208 60.1527 48.7364 58.9225 50.7724 58.1666C49.8758 57.9245 49.2219 57.5441 48.8008 57.0303C48.3797 56.5165 48.1716 55.9483 48.1716 55.3258C48.1716 54.1648 48.9444 53.0829 50.4901 52.0799C49.6776 51.5118 49.0485 50.8102 48.5977 49.9704C48.1518 49.1305 47.9239 48.172 47.9239 47.0901C47.9239 45.0892 48.6571 43.5181 50.1185 42.3818C51.5849 41.2455 53.5912 40.6774 56.1375 40.6774C58.4955 40.6774 60.383 41.1516 61.7899 42.0953C62.8996 41.1467 64.1479 40.6774 65.5301 40.6774C66.288 40.6774 66.9072 40.8404 67.3828 41.1665" fill="#E7E4DC"/>
<path d="M79.6239 57.9591C80.7236 57.3119 81.5163 56.5659 82.0017 55.726V49.9259C79.1285 50.4941 76.924 51.3142 75.3933 52.3813C73.8625 53.4485 73.0947 54.649 73.0947 55.973C73.0947 56.9463 73.3919 57.6824 73.9913 58.1814C74.5858 58.6804 75.4131 58.9324 76.4732 58.9324C77.4739 58.9324 78.5291 58.6063 79.6239 57.9591ZM70.7168 59.3968C69.7805 58.6261 69.3148 57.5787 69.3148 56.2546C69.3148 54.2785 70.3502 52.658 72.4259 51.3883C74.5016 50.1186 77.6919 49.1848 82.0067 48.587V46.4775C82.0067 45.0991 81.5708 44.0566 80.7038 43.3551C79.8369 42.6535 78.6826 42.2978 77.246 42.2978C76.2156 42.2978 75.2645 42.5004 74.3975 42.9055C73.5306 43.3106 73.0947 43.7454 73.0947 44.2049C73.0947 44.3679 73.1194 44.5704 73.1739 44.8125C73.2284 45.0546 73.2581 45.2473 73.2581 45.3807C73.2581 45.7858 73.1343 46.1366 72.8915 46.433C72.6488 46.7294 72.2525 46.8776 71.7125 46.8776C71.2518 46.8776 70.8654 46.7097 70.5533 46.3688C70.2412 46.0328 70.0876 45.5536 70.0876 44.9311C70.0876 43.5774 70.8605 42.53 72.4061 41.789C73.9517 41.0479 75.8391 40.6724 78.0585 40.6724C80.5552 40.6724 82.4773 41.2208 83.8347 42.3176C85.1921 43.4144 85.8658 44.9064 85.8658 46.7986V57.7911C85.8658 58.6557 86.163 59.0905 86.7624 59.0905C87.1439 59.0905 87.6294 58.9818 88.2288 58.7644V59.4561C87.8226 59.8068 87.3074 60.0786 86.6832 60.2663C86.059 60.454 85.4249 60.5479 84.771 60.5479C84.0378 60.5479 83.4037 60.3997 82.8588 60.1033C82.3138 59.8068 82.0463 59.3177 82.0463 58.6409V57.4255C80.9614 58.6162 79.7626 59.4314 78.4449 59.8809C77.1271 60.3256 75.849 60.5479 74.6006 60.5479C72.946 60.5479 71.6531 60.1625 70.7168 59.3918" fill="#E7E4DC"/>
<path d="M105.027 56.4572C104.894 57.8652 104.329 58.8978 103.338 59.5598C102.347 60.2218 101.134 60.5528 99.697 60.5528C97.661 60.5528 96.1154 60.1329 95.0602 59.298C94.005 58.4581 93.475 57.0649 93.475 55.1183V42.6634H90.3045V41.0825H93.475V37.5945L96.3235 35.6875H97.2994V41.0825H103.036V42.6634H97.2994V55.0343C97.2994 56.4127 97.552 57.4354 98.0523 58.0974C98.5527 58.7595 99.3354 59.0905 100.391 59.0905C101.233 59.0905 101.956 58.883 102.565 58.463C103.175 58.0431 103.536 57.3761 103.645 56.4572H105.027Z" fill="#E7E4DC"/>
<path d="M130 58.7693V59.461C129.158 60.1922 128.009 60.5578 126.542 60.5578C125.73 60.5578 125.071 60.3355 124.571 59.8908C124.07 59.4462 123.818 58.7891 123.818 57.9245V57.1143C123.223 58.0875 122.307 58.9077 121.073 59.5697C119.84 60.2317 118.448 60.5627 116.902 60.5627C114.653 60.5627 112.929 60.0687 111.735 59.0806C110.541 58.0925 109.947 56.7635 109.947 55.0837V44.2098C109.947 43.9134 109.862 43.696 109.704 43.5626C109.54 43.4292 109.352 43.36 109.134 43.36C108.862 43.36 108.456 43.4687 107.916 43.6861L107.633 42.7919L112.716 40.9639H113.776V54.5946C113.776 56.0274 114.143 57.1093 114.876 57.8405C115.609 58.5717 116.654 58.9373 118.007 58.9373C118.958 58.9373 119.879 58.7002 120.771 58.2259C121.668 57.7516 122.396 57.0451 122.965 56.0965C123.535 55.1529 123.818 54.0166 123.818 52.6876V44.2098C123.818 43.9134 123.728 43.696 123.555 43.5626C123.377 43.4292 123.183 43.36 122.965 43.36C122.747 43.36 122.341 43.4687 121.747 43.6861L121.464 42.7919L126.711 40.9639H127.607V57.801C127.607 58.6656 127.919 59.1003 128.544 59.1003C128.925 59.1003 129.41 58.9917 130.01 58.7743" fill="#E7E4DC"/>
<path d="M35.272 71.6834C35.1828 71.5895 35.1333 71.4759 35.1333 71.3376C35.1333 71.1992 35.1779 71.0757 35.272 70.9868C35.3612 70.8979 35.485 70.8534 35.6386 70.8534C35.7922 70.8534 35.9061 70.8979 35.9953 70.9868C36.0844 71.0757 36.134 71.1943 36.134 71.3376C36.134 71.4809 36.0894 71.5945 35.9953 71.6834C35.9061 71.7723 35.7872 71.8217 35.6386 71.8217C35.49 71.8217 35.3612 71.7773 35.272 71.6834ZM34.6577 76.5399H34.8261C34.9698 76.5399 35.0788 76.5152 35.168 76.4707C35.2522 76.4213 35.2968 76.3522 35.2968 76.2583V73.2891C35.2968 73.1606 35.2373 73.0964 35.1085 73.0964C35.0788 73.0964 35.0342 73.1063 34.9748 73.126C34.9153 73.1458 34.8757 73.1606 34.8509 73.1655L34.7915 72.963L35.9061 72.5776H36.129V76.2583C36.129 76.3522 36.1736 76.4213 36.2578 76.4707C36.342 76.5201 36.456 76.5399 36.5996 76.5399H36.7681V76.7622H34.6676V76.5399H34.6577Z" fill="#E7E4DC"/>
<path d="M42.5939 76.5399V76.7622H40.538V76.5399H40.6767C40.8104 76.5399 40.9194 76.5152 41.0036 76.4707C41.0879 76.4213 41.1275 76.3521 41.1275 76.2583V73.8375C41.1275 73.5262 41.0482 73.2891 40.8897 73.131C40.7312 72.9729 40.5033 72.8938 40.211 72.8938C40.003 72.8938 39.8048 72.9432 39.6166 73.047C39.4234 73.1507 39.2698 73.3039 39.1459 73.5114C39.0221 73.7189 38.9577 73.9659 38.9577 74.2524V76.2583C38.9577 76.3521 39.0023 76.4213 39.0865 76.4707C39.1707 76.5201 39.2797 76.5399 39.4184 76.5399H39.5522V76.7622H37.4963V76.5399H37.6647C37.8034 76.5399 37.9174 76.5152 38.0065 76.4707C38.0908 76.4213 38.1353 76.3521 38.1353 76.2583V73.2989C38.1353 73.1754 38.0759 73.1112 37.9471 73.1112C37.8926 73.1112 37.8084 73.1359 37.6895 73.1804L37.63 72.9877L38.7447 72.5925H38.9626V73.2792C39.0914 73.0667 39.2896 72.8889 39.5571 72.7456C39.8246 72.6023 40.1219 72.5282 40.4538 72.5282C40.9442 72.5282 41.3157 72.6369 41.5733 72.8543C41.8309 73.0717 41.9647 73.3632 41.9647 73.7238V76.2533C41.9647 76.3472 42.0093 76.4164 42.0985 76.4658C42.1876 76.5152 42.3016 76.5349 42.4403 76.5349H42.5988L42.5939 76.5399Z" fill="#E7E4DC"/>
<path d="M43.8967 76.2879C43.5252 75.9174 43.3369 75.3838 43.3369 74.6921C43.3369 74.0005 43.5252 73.4966 43.9066 73.1112C44.2881 72.7258 44.8132 72.5332 45.4919 72.5332C45.7742 72.5332 46.0467 72.5727 46.3043 72.6567C46.5619 72.7407 46.7749 72.879 46.9384 73.0816L47.0276 72.5332H47.2505V73.9955H47.0375C46.978 73.6201 46.8344 73.3385 46.6015 73.1507C46.3687 72.963 46.0764 72.8691 45.7247 72.8691C45.2293 72.8691 44.8479 73.0371 44.5804 73.378C44.3128 73.7139 44.1791 74.1586 44.1791 74.702C44.1791 75.2455 44.3079 75.6951 44.5655 76.031C44.8231 76.367 45.16 76.5349 45.586 76.5349C45.9724 76.5349 46.2944 76.4361 46.5421 76.2336C46.7898 76.031 46.9483 75.7198 47.0177 75.2949H47.2852C47.2356 75.7642 47.0623 76.1397 46.765 76.4263C46.4628 76.7128 46.0368 76.8511 45.4869 76.8511C44.8082 76.8511 44.2831 76.6634 43.9116 76.2929" fill="#E7E4DC"/>
<path d="M51.3969 76.036C51.6496 75.7198 51.7784 75.2702 51.7784 74.6872C51.7784 74.1042 51.6496 73.6695 51.3969 73.3533C51.1443 73.042 50.7975 72.8839 50.3616 72.8839C49.9256 72.8839 49.5739 73.042 49.3212 73.3533C49.0686 73.6695 48.9398 74.1141 48.9398 74.6872C48.9398 75.2603 49.0636 75.7198 49.3212 76.036C49.5739 76.3521 49.9207 76.5102 50.3616 76.5102C50.8024 76.5102 51.1393 76.3521 51.3969 76.036ZM48.7069 76.283C48.3156 75.9075 48.1224 75.3739 48.1224 74.6872C48.1224 74.0005 48.3205 73.4669 48.7119 73.0914C49.1082 72.716 49.6581 72.5282 50.3616 72.5282C51.065 72.5282 51.6149 72.716 52.0062 73.0914C52.3976 73.4669 52.5908 74.0005 52.5908 74.6872C52.5908 75.3739 52.3976 75.9075 52.0062 76.283C51.6149 76.6585 51.065 76.8462 50.3616 76.8462C49.6581 76.8462 49.0983 76.6585 48.7069 76.283Z" fill="#E7E4DC"/>
<path d="M56.4647 72.627C56.5836 72.6863 56.6431 72.7851 56.6431 72.9136C56.6431 73.0272 56.6134 73.1112 56.5589 73.1705C56.5044 73.2298 56.4251 73.2594 56.326 73.2594C56.2616 73.2594 56.2071 73.2495 56.1725 73.2248C56.1328 73.2001 56.0982 73.1705 56.0734 73.126C56.0338 73.0865 55.9941 73.0519 55.9594 73.0322C55.9248 73.0124 55.8752 73.0025 55.8108 73.0025C55.6573 73.0025 55.5136 73.0569 55.3749 73.1705C55.2362 73.2841 55.1222 73.4422 55.0331 73.6547C54.9439 73.8671 54.8944 74.1092 54.8845 74.3858V76.2632C54.8845 76.3571 54.929 76.4263 55.0182 76.4757C55.1074 76.5201 55.2213 76.5448 55.36 76.5448H55.5086V76.7671H53.4181V76.5448H53.5865C53.7302 76.5448 53.8392 76.5201 53.9284 76.4757C54.0126 76.4263 54.0572 76.3571 54.0572 76.2632V73.3039C54.0572 73.1804 53.9977 73.1161 53.8788 73.1161C53.8194 73.1161 53.7302 73.1409 53.6163 73.1853L53.5618 72.9926L54.6912 72.5974H54.8845V73.4076C54.9687 73.1557 55.1123 72.9482 55.3253 72.7802C55.5384 72.6172 55.7712 72.5332 56.0338 72.5332C56.2022 72.5332 56.3508 72.5628 56.4697 72.627" fill="#E7E4DC"/>
<path d="M60.8588 76.0063C61.062 75.6704 61.161 75.2109 61.161 74.6279C61.161 74.045 61.057 73.6102 60.844 73.3187C60.631 73.0272 60.304 72.8839 59.8532 72.8839C59.6798 72.8839 59.5064 72.9333 59.3182 73.0371C59.1349 73.1408 58.9764 73.2841 58.8525 73.4669C58.7237 73.6547 58.6643 73.8671 58.6643 74.1042V75.3344C58.6643 75.6654 58.7733 75.9421 58.9863 76.1644C59.1993 76.3867 59.4965 76.5053 59.873 76.5053C60.3288 76.5053 60.6557 76.3373 60.8588 75.9964M57.1979 78.521H57.3664C57.51 78.521 57.624 78.4963 57.7131 78.4518C57.8023 78.4024 57.8469 78.3333 57.8469 78.2394V73.2989C57.8469 73.2347 57.8271 73.1853 57.7874 73.1606C57.7478 73.131 57.7082 73.1161 57.6586 73.1161C57.6091 73.1161 57.5249 73.1409 57.3911 73.1853L57.3317 72.9926L58.4463 72.5974H58.6692V73.2742C58.8377 73.0124 59.0556 72.8197 59.3132 72.7061C59.5708 72.5925 59.8433 72.5332 60.1356 72.5332C60.7102 72.5332 61.166 72.711 61.4979 73.0618C61.8298 73.4126 61.9933 73.9214 61.9933 74.5835C61.9933 75.3789 61.8199 75.952 61.4682 76.3077C61.1164 76.6634 60.6062 76.8462 59.9374 76.8462C59.66 76.8462 59.4024 76.7869 59.1696 76.6683C58.9318 76.5498 58.7683 76.4065 58.6742 76.2385V78.2295C58.6742 78.3234 58.7188 78.3926 58.8079 78.4469C58.8971 78.4963 59.0061 78.521 59.1448 78.521H59.2934V78.7433H57.2078V78.521H57.1979Z" fill="#E7E4DC"/>
<path d="M66.0456 76.036C66.2982 75.7198 66.427 75.2702 66.427 74.6872C66.427 74.1042 66.2982 73.6695 66.0456 73.3533C65.7929 73.042 65.4461 72.8839 65.0102 72.8839C64.5743 72.8839 64.2225 73.042 63.9699 73.3533C63.7172 73.6695 63.5884 74.1141 63.5884 74.6872C63.5884 75.2603 63.7123 75.7198 63.9699 76.036C64.2225 76.3521 64.5693 76.5102 65.0102 76.5102C65.4511 76.5102 65.788 76.3521 66.0456 76.036ZM63.3606 76.283C62.9692 75.9075 62.776 75.3739 62.776 74.6872C62.776 74.0005 62.9742 73.4669 63.3655 73.0914C63.7618 72.716 64.3117 72.5282 65.0152 72.5282C65.7186 72.5282 66.2685 72.716 66.6598 73.0914C67.0512 73.4669 67.2494 74.0005 67.2494 74.6872C67.2494 75.3739 67.0512 75.9075 66.6598 76.283C66.2685 76.6585 65.7186 76.8462 65.0152 76.8462C64.3117 76.8462 63.7519 76.6585 63.3606 76.283Z" fill="#E7E4DC"/>
<path d="M71.1134 72.627C71.2323 72.6863 71.2967 72.7851 71.2967 72.9136C71.2967 73.0272 71.267 73.1112 71.2125 73.1705C71.158 73.2298 71.0787 73.2594 70.9796 73.2594C70.9152 73.2594 70.8607 73.2495 70.8261 73.2248C70.7864 73.2001 70.7567 73.1705 70.727 73.126C70.6874 73.0865 70.6477 73.0519 70.613 73.0322C70.5784 73.0124 70.5288 73.0025 70.4644 73.0025C70.3109 73.0025 70.1672 73.0569 70.0285 73.1705C69.8898 73.2841 69.7758 73.4422 69.6867 73.6547C69.5975 73.8671 69.548 74.1092 69.5381 74.3858V76.2632C69.5381 76.3571 69.5826 76.4263 69.6718 76.4757C69.761 76.5201 69.8749 76.5448 70.0186 76.5448H70.1672V76.7671H68.0767V76.5448H68.2451C68.3888 76.5448 68.4977 76.5201 68.5869 76.4757C68.6711 76.4263 68.7157 76.3571 68.7157 76.2632V73.3039C68.7157 73.1804 68.6563 73.1161 68.5374 73.1161C68.4779 73.1161 68.3888 73.1409 68.2748 73.1853L68.2203 72.9926L69.3498 72.5974H69.543V73.4076C69.6272 73.1557 69.7709 72.9482 69.9839 72.7802C70.1969 72.6172 70.4298 72.5332 70.6923 72.5332C70.8607 72.5332 71.0094 72.5628 71.1283 72.627" fill="#E7E4DC"/>
<path d="M74.1402 76.283C74.378 76.1446 74.5514 75.9816 74.6554 75.7988V74.539C74.0312 74.6625 73.5507 74.8404 73.2188 75.0726C72.8869 75.3048 72.7185 75.5666 72.7185 75.8532C72.7185 76.0656 72.7829 76.2237 72.9117 76.3324C73.0405 76.4411 73.2188 76.4954 73.4516 76.4954C73.6845 76.4954 73.8975 76.4262 74.1353 76.283M72.2082 76.5942C72.0051 76.4263 71.9011 76.199 71.9011 75.9124C71.9011 75.4826 72.1289 75.1318 72.5748 74.8552C73.0256 74.5785 73.7191 74.376 74.6554 74.2475V73.788C74.6554 73.4867 74.5613 73.2644 74.3731 73.1112C74.1848 72.958 73.9322 72.8839 73.6201 72.8839C73.3971 72.8839 73.1891 72.9284 73.0008 73.0173C72.8126 73.1063 72.7185 73.2001 72.7185 73.2989C72.7185 73.3335 72.7234 73.378 72.7383 73.4323C72.7482 73.4867 72.7581 73.5262 72.7581 73.5558C72.7581 73.6448 72.7333 73.7189 72.6788 73.7831C72.6243 73.8473 72.5401 73.8819 72.4212 73.8819C72.3221 73.8819 72.2379 73.8473 72.1686 73.7732C72.0992 73.6991 72.0645 73.5954 72.0645 73.462C72.0645 73.1705 72.233 72.9383 72.5698 72.7802C72.9067 72.6172 73.3129 72.5381 73.7984 72.5381C74.3384 72.5381 74.7595 72.6567 75.0517 72.8938C75.344 73.131 75.4926 73.457 75.4926 73.8671V76.2533C75.4926 76.4411 75.557 76.5349 75.6858 76.5349C75.7701 76.5349 75.8741 76.5102 76.0029 76.4658V76.614C75.9137 76.6881 75.8047 76.7474 75.666 76.7918C75.5323 76.8314 75.3936 76.8511 75.2499 76.8511C75.0914 76.8511 74.9527 76.8166 74.8338 76.7523C74.7149 76.6881 74.6554 76.5844 74.6554 76.4361V76.1743C74.4176 76.4312 74.16 76.609 73.8727 76.7079C73.5854 76.8067 73.308 76.8511 73.0405 76.8511C72.6838 76.8511 72.4014 76.7671 72.1983 76.5992" fill="#E7E4DC"/>
<path d="M79.426 76.3423C79.6093 76.2286 79.748 76.0755 79.8471 75.8828C79.9462 75.6901 79.9908 75.4925 79.9908 75.2801V73.9412C79.9908 73.7436 79.9313 73.5608 79.8174 73.3978C79.7034 73.2347 79.5598 73.1112 79.3814 73.0173C79.2031 72.9284 79.0198 72.879 78.8316 72.879C78.3956 72.879 78.0637 73.0272 77.8408 73.3236C77.6129 73.6201 77.499 74.0548 77.499 74.623C77.499 75.8779 77.925 76.5053 78.7771 76.5053C79.0248 76.5053 79.2378 76.446 79.4211 76.3324M77.177 76.3126C76.845 75.9569 76.6766 75.3838 76.6766 74.6032C76.6766 74.1586 76.7559 73.7782 76.9194 73.4669C77.0828 73.1557 77.3008 72.9235 77.5832 72.7654C77.8606 72.6122 78.1826 72.5332 78.5393 72.5332C79.1932 72.5332 79.6737 72.7407 79.9759 73.1507V71.1597C79.9759 71.0362 79.9165 70.972 79.7976 70.972C79.7381 70.972 79.649 70.9967 79.535 71.0412L79.4805 70.8386L80.5852 70.4434H80.8082V76.1496C80.8082 76.2533 80.8379 76.3324 80.9023 76.3818C80.9667 76.4312 81.0559 76.4559 81.1797 76.4559H81.3828V76.6585L80.1295 76.7918L80.0849 76.1051C79.7926 76.5992 79.2774 76.8462 78.5492 76.8462C77.9646 76.8462 77.5089 76.6683 77.177 76.3077" fill="#E7E4DC"/>
<path d="M85.3856 76.036C85.6382 75.7198 85.767 75.2702 85.767 74.6872C85.767 74.1042 85.6382 73.6695 85.3856 73.3533C85.1329 73.042 84.7861 72.8839 84.3502 72.8839C83.9143 72.8839 83.5625 73.042 83.3099 73.3533C83.0572 73.6695 82.9284 74.1141 82.9284 74.6872C82.9284 75.2603 83.0523 75.7198 83.3099 76.036C83.5625 76.3521 83.9093 76.5102 84.3502 76.5102C84.7911 76.5102 85.1279 76.3521 85.3856 76.036ZM82.6956 76.283C82.3042 75.9075 82.111 75.3739 82.111 74.6872C82.111 74.0005 82.3092 73.4669 82.7005 73.0914C83.0969 72.716 83.6467 72.5282 84.3502 72.5282C85.0536 72.5282 85.6035 72.716 85.9949 73.0914C86.3862 73.4669 86.5844 74.0005 86.5844 74.6872C86.5844 75.3739 86.3862 75.9075 85.9949 76.283C85.6035 76.6585 85.0536 76.8462 84.3502 76.8462C83.6467 76.8462 83.0869 76.6585 82.6956 76.283Z" fill="#E7E4DC"/>
<path d="M90.4484 72.627C90.5673 72.6863 90.6317 72.7851 90.6317 72.9136C90.6317 73.0272 90.602 73.1112 90.5475 73.1705C90.493 73.2298 90.4138 73.2594 90.3147 73.2594C90.2503 73.2594 90.1958 73.2495 90.1611 73.2248C90.1215 73.2001 90.0868 73.1705 90.0571 73.126C90.0174 73.0865 89.9778 73.0519 89.9431 73.0322C89.9085 73.0124 89.8589 73.0025 89.7945 73.0025C89.6409 73.0025 89.4973 73.0569 89.3586 73.1705C89.2199 73.2841 89.1059 73.4422 89.0168 73.6547C88.9276 73.8671 88.878 74.1092 88.8681 74.3858V76.2632C88.8681 76.3571 88.9127 76.4263 89.0019 76.4757C89.0911 76.5201 89.205 76.5448 89.3487 76.5448H89.4973V76.7671H87.4067V76.5448H87.5752C87.7188 76.5448 87.8278 76.5201 87.917 76.4757C88.0012 76.4263 88.0458 76.3571 88.0458 76.2632V73.3039C88.0458 73.1804 87.9863 73.1161 87.8675 73.1161C87.808 73.1161 87.7188 73.1409 87.6049 73.1853L87.5504 72.9926L88.6799 72.5974H88.8731V73.4076C88.9573 73.1557 89.101 72.9482 89.314 72.7802C89.527 72.6172 89.7598 72.5332 90.0224 72.5332C90.1908 72.5332 90.3394 72.5628 90.4583 72.627" fill="#E7E4DC"/>
<path d="M93.4753 76.283C93.713 76.1446 93.8864 75.9816 93.9905 75.7988V74.539C93.3663 74.6625 92.8857 74.8404 92.5538 75.0726C92.2219 75.3048 92.0535 75.5666 92.0535 75.8532C92.0535 76.0656 92.1179 76.2237 92.2467 76.3324C92.3755 76.4411 92.5538 76.4954 92.7867 76.4954C93.0195 76.4954 93.2325 76.4262 93.4703 76.283M91.5432 76.5942C91.3401 76.4263 91.2361 76.199 91.2361 75.9124C91.2361 75.4826 91.464 75.1318 91.9098 74.8552C92.3606 74.5785 93.0542 74.376 93.9905 74.2475V73.788C93.9905 73.4867 93.8963 73.2644 93.7081 73.1112C93.5198 72.958 93.2672 72.8839 92.96 72.8839C92.7371 72.8839 92.5291 72.9284 92.3408 73.0173C92.1526 73.1063 92.0584 73.2001 92.0584 73.2989C92.0584 73.3335 92.0634 73.378 92.0783 73.4323C92.0882 73.4867 92.0981 73.5262 92.0981 73.5558C92.0981 73.6448 92.0733 73.7189 92.0188 73.7831C91.9643 73.8473 91.8801 73.8819 91.7612 73.8819C91.6621 73.8819 91.5779 73.8473 91.5086 73.7732C91.4392 73.6991 91.4045 73.5954 91.4045 73.462C91.4045 73.1705 91.573 72.9383 91.9098 72.7802C92.2467 72.6172 92.6529 72.5381 93.1384 72.5381C93.6784 72.5381 94.0994 72.6567 94.3917 72.8938C94.684 73.131 94.8326 73.457 94.8326 73.8671V76.2533C94.8326 76.4411 94.897 76.5349 95.0258 76.5349C95.11 76.5349 95.2141 76.5102 95.3429 76.4658V76.614C95.2537 76.6881 95.1447 76.7474 95.006 76.7918C94.8723 76.8314 94.7335 76.8511 94.5899 76.8511C94.4314 76.8511 94.2927 76.8166 94.1738 76.7523C94.0549 76.6881 93.9954 76.5844 93.9954 76.4361V76.1743C93.7576 76.4312 93.5 76.609 93.2127 76.7079C92.9254 76.8067 92.648 76.8511 92.3804 76.8511C92.0238 76.8511 91.7414 76.7671 91.5383 76.5992" fill="#E7E4DC"/>
</g>
<defs>
<clipPath id="clip0_125_563">
<rect width="130" height="78" fill="white" transform="translate(0 0.743164)"/>
</clipPath>
</defs>
</svg>
