<svg width="121" height="73" viewBox="0 0 121 73" fill="none" xmlns="http://www.w3.org/2000/svg">
<g clip-path="url(#clip0_158_310)">
<path d="M73.618 17.8095C73.3829 16.857 73.0416 15.9324 72.6082 15.0493C72.1794 14.1662 71.6676 13.3201 71.0774 12.5341C70.4918 11.7482 69.8509 11.0038 69.1546 10.3195C68.4584 9.63988 67.7252 9.00185 66.9598 8.41467C66.1944 7.8275 65.3967 7.28656 64.5852 6.7826C63.7691 6.28327 62.9345 5.82093 62.0861 5.39095C61.2377 4.96098 60.3754 4.57261 59.504 4.20274C58.6325 3.83749 57.7518 3.49998 56.8665 3.18558C55.9812 2.87119 55.0867 2.58454 54.1922 2.31638C53.293 2.04822 52.3939 1.8078 51.4902 1.57663C50.5864 1.35008 49.6781 1.14203 48.7651 0.95247C47.8567 0.76291 46.9438 0.58722 46.0308 0.4254L43.6055 -0.00457764L44.0573 2.3996C44.3617 4.03167 44.7075 5.66374 45.104 7.28193C45.5052 8.90013 45.957 10.5137 46.4735 12.1088C46.7317 12.9086 47.0083 13.6992 47.308 14.4898C47.6031 15.2805 47.9167 16.0618 48.2579 16.8385C48.5991 17.6153 48.9588 18.3828 49.3507 19.141C49.7426 19.8992 50.1622 20.6482 50.6141 21.3834C51.0706 22.1185 51.5593 22.8351 52.0942 23.5286C52.6291 24.2221 53.21 24.8925 53.8556 25.5213C54.5011 26.1501 55.2066 26.7327 55.9996 27.2412C56.1979 27.3661 56.4008 27.4863 56.6083 27.6019C56.7143 27.6573 56.8158 27.7175 56.9264 27.7683L57.0878 27.8469C57.1432 27.8746 57.2031 27.9024 57.263 27.9301L57.3506 27.9717L57.3921 27.9902L57.429 28.0041L57.572 28.0642L57.6273 28.0873L57.6688 28.1012L57.7472 28.1336L57.904 28.1937C58.1161 28.2723 58.3282 28.3509 58.5449 28.4202C59.4117 28.7022 60.3109 28.8964 61.2284 28.9889C62.146 29.0814 63.0774 29.0675 63.995 28.938C64.9126 28.8086 65.8117 28.5682 66.6693 28.226C67.0982 28.055 67.5177 27.8562 67.9235 27.6296C68.1264 27.514 68.3293 27.3938 68.5275 27.2644C68.629 27.1996 68.7258 27.1303 68.8273 27.0563C68.878 27.0193 68.9287 26.9823 68.9794 26.9453L69.0578 26.8852L69.1546 26.802L69.5097 26.5107L69.5881 26.0854L69.6019 26.0068L69.6111 25.9421L69.6296 25.8218C69.6388 25.7433 69.6526 25.6647 69.6618 25.5861C69.6803 25.4335 69.6941 25.2809 69.7079 25.1283C69.731 24.8232 69.7448 24.5227 69.754 24.2221C69.7633 23.6211 69.7402 23.0247 69.6849 22.4283C69.6296 21.8318 69.5327 21.2447 69.4082 20.6621C69.2837 20.0796 69.1177 19.5016 68.9241 18.9376C68.7258 18.3735 68.4953 17.8233 68.2278 17.2916C67.9604 16.7599 67.6561 16.2467 67.3195 15.7567C66.9829 15.2666 66.6186 14.7996 66.2267 14.365C65.8348 13.9258 65.4059 13.5236 64.9633 13.1398C64.742 12.9456 64.5114 12.7699 64.2855 12.5896C64.0503 12.4186 63.8198 12.2429 63.5754 12.0857C63.3402 11.9192 63.0913 11.7713 62.8469 11.6233C62.5979 11.48 62.3489 11.3367 62.0953 11.2072C61.5927 10.9391 61.0717 10.7033 60.5506 10.486C60.2878 10.3842 60.025 10.2733 59.7576 10.1854C59.6238 10.1392 59.4947 10.0883 59.361 10.0421L58.9599 9.91266C58.6924 9.82481 58.4204 9.75084 58.153 9.67224C57.8809 9.59827 57.6089 9.53354 57.3414 9.46419C57.0694 9.40408 56.7973 9.34398 56.5253 9.2885C56.2532 9.23764 55.9766 9.18216 55.7045 9.14055C55.4279 9.09894 55.1558 9.0527 54.8792 9.01572C54.6025 8.98335 54.3305 8.94174 54.0538 8.914C53.7772 8.88626 53.5005 8.85852 53.2285 8.8354L52.4031 8.77992L53.21 8.96486L54.0123 9.16367C54.2798 9.23302 54.5426 9.30699 54.8054 9.37634C55.0682 9.45032 55.3311 9.53354 55.5939 9.60751C55.8567 9.69074 56.1149 9.77858 56.3731 9.85718C56.6313 9.94502 56.8849 10.0375 57.1432 10.13C57.6504 10.3241 58.153 10.5276 58.6463 10.7495L59.0152 10.9159C59.1351 10.9714 59.255 11.0362 59.3795 11.0916C59.6238 11.2072 59.859 11.3367 60.0942 11.4615C60.5645 11.7204 61.0256 11.9886 61.4636 12.2891C61.6849 12.4324 61.897 12.5896 62.1137 12.7468C62.2198 12.8254 62.3212 12.9086 62.4273 12.9872C62.5333 13.0658 62.6348 13.1491 62.7362 13.2323C62.9391 13.3941 63.1374 13.5744 63.331 13.7455C63.5201 13.9258 63.7091 14.1015 63.8889 14.291C64.2486 14.6655 64.5852 15.0585 64.8941 15.47C65.2031 15.8815 65.4843 16.3069 65.7379 16.7553C65.9869 17.1992 66.2129 17.6569 66.4019 18.1285C66.5956 18.6001 66.7569 19.0809 66.8907 19.571C67.1581 20.5512 67.2918 21.5637 67.3241 22.5762C67.3425 23.0802 67.3287 23.5887 67.2872 24.0927C67.2688 24.3424 67.2411 24.592 67.2042 24.8371C67.195 24.8972 67.1858 24.9573 67.1765 25.0174C67.1673 25.022 67.1535 25.0312 67.1443 25.0359C66.9967 25.1237 66.8446 25.2069 66.6924 25.2855C66.3835 25.4474 66.0561 25.5861 65.7287 25.7063C65.0647 25.9467 64.3731 26.1085 63.6768 26.1825C62.976 26.2565 62.2705 26.2426 61.5696 26.1547C60.8688 26.0623 60.1771 25.8866 59.4947 25.6462C59.3241 25.5861 59.1581 25.5213 58.9875 25.452L58.863 25.4011L58.7985 25.3734H58.7846C58.7846 25.3734 58.7754 25.3641 58.78 25.3641H58.7708L58.7524 25.3503L58.614 25.2855L58.5818 25.2717L58.5541 25.2578L58.5034 25.2347L58.4019 25.1838L58.2913 25.1237C58.2175 25.0867 58.1437 25.0405 58.07 24.9989C57.9224 24.911 57.7795 24.8232 57.6365 24.7261C57.0648 24.3377 56.5161 23.8661 56.0043 23.3437C55.4924 22.8213 55.0129 22.2479 54.5656 21.6377C54.1184 21.032 53.6988 20.3893 53.3069 19.7282C52.9149 19.067 52.5461 18.3828 52.2049 17.6846C51.859 16.9865 51.5409 16.2699 51.2366 15.5486C50.6279 14.0969 50.1023 12.6035 49.632 11.0916C49.1616 9.57515 48.7467 8.03555 48.3824 6.47746C48.2072 5.73771 48.0458 4.99796 47.889 4.24897C47.949 4.26284 48.0089 4.27209 48.0688 4.28596C48.9449 4.47089 49.8118 4.67895 50.6786 4.89162C51.5455 5.1043 52.4031 5.33547 53.2608 5.57589C54.1138 5.82093 54.9668 6.07522 55.806 6.35263C56.6452 6.63003 57.4798 6.92131 58.3005 7.2357C59.1259 7.55009 59.9328 7.8876 60.7351 8.2436C61.1316 8.42392 61.5281 8.60886 61.9201 8.80304C62.312 8.9926 62.6993 9.19603 63.082 9.39946C63.4601 9.60751 63.8428 9.82019 64.2117 10.0421C64.5852 10.264 64.9495 10.4952 65.3091 10.731C66.0284 11.2026 66.7201 11.7158 67.3748 12.266C68.0249 12.8208 68.6474 13.4033 69.21 14.0368C69.7725 14.6702 70.2935 15.3406 70.7408 16.0618C70.9667 16.4224 71.1696 16.7923 71.3633 17.1714C71.5569 17.5505 71.7321 17.9389 71.8843 18.3365C72.1886 19.1318 72.4284 19.964 72.5759 20.8193C72.6497 21.2447 72.705 21.6793 72.7419 22.1139C72.7788 22.5485 72.788 22.9923 72.788 23.4315C72.788 23.8754 72.7604 24.3192 72.7189 24.7631C72.6774 25.2069 72.6174 25.6554 72.5344 26.0993C72.4561 26.5431 72.3592 26.987 72.2393 27.4262C72.184 27.6481 72.1195 27.8654 72.0503 28.0827C71.9811 28.3 71.912 28.5173 71.8244 28.7346C72.0872 28.3555 72.3131 27.9532 72.5252 27.5371C72.7327 27.121 72.9218 26.6957 73.0877 26.2565C73.2537 25.8218 73.4013 25.3734 73.5258 24.9203C73.6503 24.4672 73.7517 24.0048 73.8393 23.5379C73.9223 23.0709 73.9777 22.5947 74.0145 22.1185C74.0468 21.6423 74.0607 21.1568 74.0422 20.676C74.0099 19.7097 73.8808 18.7388 73.6364 17.791" fill="#84786A"/>
<path d="M77.3944 4.30445C77.3944 6.37574 75.7206 8.04942 73.6595 8.04942C71.5984 8.04942 69.9247 6.37112 69.9247 4.30445C69.9247 2.23778 71.5984 0.55948 73.6595 0.55948C75.7206 0.55948 77.3944 2.23778 77.3944 4.30445Z" fill="#84786A"/>
<path d="M9.59995 53.5439C10.6236 52.9382 11.3613 52.2401 11.8132 51.4541V46.0262C9.13886 46.5579 7.087 47.3254 5.66222 48.324C4.23744 49.3227 3.52275 50.4462 3.52275 51.6852C3.52275 52.5961 3.79941 53.2849 4.35733 53.7519C4.91064 54.2189 5.68067 54.4547 6.6674 54.4547C7.59881 54.4547 8.58094 54.1495 9.59995 53.5439ZM1.30489 54.8893C0.433427 54.168 0 53.1879 0 51.9488C0 50.0994 0.963684 48.5829 2.89566 47.3947C4.82764 46.2065 7.79708 45.3327 11.8132 44.7732V42.799C11.8132 41.5091 11.4074 40.5335 10.6005 39.877C9.79361 39.2205 8.71927 38.8876 7.3821 38.8876C6.42302 38.8876 5.53773 39.0772 4.73081 39.4563C3.9239 39.8354 3.51814 40.2423 3.51814 40.6723C3.51814 40.8248 3.54119 41.0144 3.59191 41.2409C3.64263 41.4675 3.66569 41.6478 3.66569 41.7726C3.66569 42.1517 3.55042 42.48 3.32448 42.7574C3.09854 43.0348 2.72967 43.1735 2.22708 43.1735C1.79826 43.1735 1.43861 43.0163 1.14812 42.6973C0.857633 42.3829 0.714694 41.9344 0.714694 41.3519C0.714694 40.0851 1.434 39.1049 2.87261 38.4114C4.31122 37.7179 6.06337 37.3665 8.13368 37.3665C10.453 37.3665 12.2466 37.8797 13.51 38.9061C14.7734 39.9325 15.4005 41.3288 15.4005 43.0995V53.3867C15.4005 54.1958 15.6772 54.6026 16.2351 54.6026C16.5901 54.6026 17.042 54.5009 17.5999 54.2975V54.9447C17.2218 55.273 16.7423 55.5273 16.1613 55.703C15.5803 55.8787 14.9901 55.9665 14.3815 55.9665C13.6991 55.9665 13.1089 55.8278 12.6017 55.5504C12.0945 55.273 11.8455 54.8153 11.8455 54.1819V53.0445C10.8357 54.1588 9.71984 54.9216 8.49333 55.3424C7.26682 55.7585 6.0772 55.9665 4.91525 55.9665C3.3752 55.9665 2.17175 55.6059 1.30028 54.8846" fill="#84786A"/>
<path d="M41.6459 54.6442V55.592H32.8252V54.6442H33.4292C34.0102 54.6442 34.4759 54.5425 34.831 54.3391C35.186 54.1357 35.3612 53.8351 35.3612 53.4283V42.9886C35.3612 41.6478 35.02 40.6353 34.3376 39.951C33.6552 39.2667 32.6823 38.9246 31.4235 38.9246C30.5382 38.9246 29.6898 39.1465 28.869 39.5904C28.0483 40.0342 27.3751 40.6954 26.8448 41.5831C26.3146 42.4708 26.0517 43.5341 26.0517 44.7732V53.4283C26.0517 53.8351 26.2362 54.1357 26.6005 54.3391C26.9647 54.5425 27.4396 54.6442 28.0206 54.6442H28.5878V55.592H19.7671V54.6442H20.4864C21.0904 54.6442 21.5791 54.5425 21.9434 54.3391C22.3077 54.1357 22.4921 53.8351 22.4921 53.4283V40.6723C22.4921 40.1406 22.2293 39.877 21.699 39.877C21.4731 39.877 21.1042 39.9787 20.6016 40.1822L20.3342 39.3453L25.1065 37.6347H26.0517V40.5937C26.6051 39.6828 27.4581 38.9154 28.6062 38.2958C29.7543 37.6763 31.0362 37.3665 32.4471 37.3665C34.5405 37.3665 36.1451 37.8335 37.2563 38.772C38.3675 39.7106 38.9209 40.9635 38.9209 42.5309V53.4283C38.9209 53.8351 39.1099 54.1357 39.488 54.3391C39.8661 54.5425 40.3595 54.6442 40.9635 54.6442H41.6459Z" fill="#84786A"/>
<path d="M55.3911 46.655C56.0966 45.8089 56.4516 44.7131 56.4516 43.3723C56.4516 42.0315 56.0966 40.9358 55.3911 40.0897C54.6856 39.2436 53.6343 38.8183 52.2464 38.8183C50.8586 38.8183 49.8534 39.2436 49.1617 40.0897C48.4655 40.9358 48.1197 42.0315 48.1197 43.3723C48.1197 44.7131 48.4655 45.8089 49.1617 46.655C49.8534 47.501 50.8862 47.9264 52.2464 47.9264C53.6067 47.9264 54.681 47.501 55.3911 46.655ZM47.4557 55.5365C47.1375 56.0821 46.9808 56.5907 46.9808 57.0761C46.9808 58.0887 47.4603 58.8515 48.4194 59.374C49.3784 59.8918 50.6557 60.1507 52.2418 60.1507C54.0355 60.1507 55.4464 59.8456 56.4839 59.2399C57.5167 58.6342 58.0378 57.7697 58.0378 56.66C58.0378 55.8509 57.7657 55.2545 57.2262 54.8754C56.6822 54.4963 55.783 54.3067 54.5196 54.3067H49.028C48.2949 54.5841 47.7738 54.9956 47.4557 55.5412M62.7132 37.8242C63.1559 38.1294 63.3772 38.4946 63.3772 38.9246C63.3772 39.3315 63.2712 39.6459 63.0545 39.8724C62.8377 40.0989 62.5288 40.2145 62.1277 40.2145C61.851 40.2145 61.6435 40.1637 61.5052 40.062C61.3669 39.9602 61.2331 39.8077 61.1086 39.6042C60.9565 39.3777 60.7997 39.2066 60.6337 39.091C60.4677 38.9755 60.2233 38.92 59.896 38.92C59.5179 38.92 59.0245 39.0864 58.4205 39.4147C59.4533 40.4041 59.9744 41.7171 59.9744 43.3631C59.9744 45.2633 59.2919 46.7289 57.9317 47.7692C56.5669 48.8048 54.6764 49.3273 52.2511 49.3273C50.6879 49.3273 49.3369 49.1007 48.198 48.643C47.4418 49.2025 47.0638 49.7804 47.0638 50.3907C47.0638 50.8715 47.2897 51.2645 47.7462 51.565C48.2027 51.8702 48.8436 52.0227 49.6782 52.0227H55.7738C57.3139 52.0227 58.5957 52.3603 59.6147 53.0307C60.6383 53.701 61.1455 54.709 61.1455 56.0497C61.1455 57.8205 60.3386 59.1752 58.7248 60.1137C57.111 61.0477 54.9023 61.5193 52.0989 61.5193C49.7243 61.5193 47.8522 61.1355 46.4782 60.3588C45.1041 59.5867 44.4171 58.4817 44.4171 57.0392C44.4171 55.5967 45.3623 54.4454 47.2574 53.738C46.4228 53.5115 45.8142 53.1555 45.4223 52.6747C45.0303 52.1938 44.8367 51.6621 44.8367 51.0796C44.8367 49.9931 45.556 48.9805 46.9946 48.042C46.2384 47.5103 45.6528 46.8538 45.2332 46.0678C44.8182 45.2818 44.6061 44.3849 44.6061 43.3723C44.6061 41.4998 45.2885 40.0296 46.6488 38.9662C48.0136 37.9028 49.881 37.3711 52.2511 37.3711C54.4459 37.3711 56.2026 37.815 57.5121 38.698C58.545 37.8104 59.7069 37.3711 60.9934 37.3711C61.6988 37.3711 62.2752 37.5237 62.7179 37.8288" fill="#84786A"/>
<path d="M74.1115 53.5439C75.1351 52.9382 75.8728 52.2401 76.3247 51.4541V46.0262C73.6504 46.5579 71.5985 47.3254 70.1737 48.324C68.749 49.3227 68.0343 50.4462 68.0343 51.6852C68.0343 52.5961 68.3109 53.2849 68.8688 53.7519C69.4221 54.2189 70.1922 54.4547 71.1789 54.4547C72.1103 54.4547 73.0924 54.1495 74.1115 53.5439ZM65.821 54.8893C64.9495 54.168 64.5161 53.1879 64.5161 51.9488C64.5161 50.0994 65.4798 48.5829 67.4118 47.3947C69.3438 46.2065 72.3132 45.3327 76.3293 44.7732V42.799C76.3293 41.5091 75.9236 40.5335 75.1166 39.877C74.3097 39.2205 73.2354 38.8876 71.8982 38.8876C70.9391 38.8876 70.0538 39.0772 69.2469 39.4563C68.44 39.8354 68.0343 40.2423 68.0343 40.6723C68.0343 40.8248 68.0573 41.0144 68.108 41.2409C68.1588 41.4675 68.1864 41.6478 68.1864 41.7726C68.1864 42.1517 68.0711 42.48 67.8452 42.7574C67.6193 43.0348 67.2504 43.1735 66.7478 43.1735C66.319 43.1735 65.9593 43.0163 65.6689 42.6973C65.3784 42.3829 65.2354 41.9344 65.2354 41.3519C65.2354 40.0851 65.9547 39.1049 67.3933 38.4114C68.832 37.7179 70.5887 37.3665 72.6544 37.3665C74.9783 37.3665 76.7674 37.8797 78.0308 38.9061C79.2942 39.9325 79.9212 41.3288 79.9212 43.0995V53.3867C79.9212 54.1958 80.1979 54.6026 80.7558 54.6026C81.1109 54.6026 81.5627 54.5009 82.1207 54.2975V54.9447C81.7426 55.273 81.263 55.5273 80.682 55.703C80.1011 55.8787 79.5109 55.9665 78.9022 55.9665C78.2198 55.9665 77.6296 55.8278 77.1224 55.5504C76.6152 55.273 76.3662 54.8153 76.3662 54.1819V53.0445C75.3564 54.1588 74.2406 54.9216 73.0141 55.3424C71.7876 55.7585 70.5979 55.9665 69.436 55.9665C67.8959 55.9665 66.6925 55.6059 65.821 54.8846" fill="#84786A"/>
<path d="M97.7563 52.1383C97.6318 53.456 97.1062 54.4223 96.184 55.0418C95.2618 55.6614 94.1321 55.9711 92.795 55.9711C90.8999 55.9711 89.4613 55.5782 88.4791 54.7968C87.497 54.0108 87.0036 52.707 87.0036 50.8854V39.2297H84.0526V37.7503H87.0036V34.4861L89.6549 32.7015H90.5633V37.7503H95.9027V39.2297H90.5633V50.8068C90.5633 52.0967 90.7984 53.0538 91.2641 53.6733C91.7298 54.2928 92.4584 54.6026 93.4405 54.6026C94.2243 54.6026 94.8975 54.4084 95.4647 54.0154C96.0318 53.6225 96.3684 52.9983 96.4699 52.1383H97.7563Z" fill="#84786A"/>
<path d="M121 54.3021V54.9494C120.216 55.6336 119.146 55.9758 117.782 55.9758C117.025 55.9758 116.412 55.7677 115.946 55.3516C115.481 54.9355 115.246 54.3206 115.246 53.5115V52.7532C114.692 53.6641 113.839 54.4316 112.691 55.0511C111.543 55.6706 110.247 55.9804 108.809 55.9804C106.715 55.9804 105.111 55.5181 104 54.5934C102.888 53.6687 102.335 52.425 102.335 50.853V40.6769C102.335 40.3995 102.257 40.196 102.109 40.0712C101.957 39.9464 101.782 39.8816 101.579 39.8816C101.325 39.8816 100.947 39.9834 100.444 40.1868L100.182 39.35L104.912 37.6393H105.899V50.3953C105.899 51.7361 106.24 52.7486 106.923 53.4329C107.605 54.1172 108.578 54.4593 109.837 54.4593C110.722 54.4593 111.58 54.2374 112.41 53.7935C113.244 53.3497 113.922 52.6885 114.452 51.8008C114.983 50.9178 115.246 49.8544 115.246 48.6107V40.6769C115.246 40.3995 115.163 40.196 115.001 40.0712C114.835 39.9464 114.655 39.8816 114.452 39.8816C114.25 39.8816 113.872 39.9834 113.318 40.1868L113.055 39.35L117.938 37.6393H118.773V53.3959C118.773 54.205 119.063 54.6119 119.644 54.6119C119.999 54.6119 120.451 54.5101 121.009 54.3067" fill="#84786A"/>
<path d="M32.8301 66.388C32.7471 66.3001 32.7009 66.1938 32.7009 66.0643C32.7009 65.9349 32.7424 65.8193 32.8301 65.736C32.9131 65.6528 33.0283 65.6112 33.1713 65.6112C33.3142 65.6112 33.4203 65.6528 33.5033 65.736C33.5863 65.8193 33.6324 65.9302 33.6324 66.0643C33.6324 66.1984 33.5909 66.3047 33.5033 66.388C33.4203 66.4712 33.3096 66.5174 33.1713 66.5174C33.0329 66.5174 32.9131 66.4758 32.8301 66.388ZM32.2583 70.9328H32.4151C32.5488 70.9328 32.6502 70.9097 32.7332 70.868C32.8116 70.8218 32.8531 70.7571 32.8531 70.6692V67.8906C32.8531 67.7704 32.7978 67.7103 32.6779 67.7103C32.6502 67.7103 32.6087 67.7195 32.5534 67.738C32.4981 67.7565 32.4612 67.7704 32.4381 67.775L32.3828 67.5854L33.4203 67.2248H33.6277V70.6692C33.6277 70.7571 33.6692 70.8218 33.7476 70.868C33.826 70.9143 33.9321 70.9328 34.0658 70.9328H34.2226V71.1408H32.2675V70.9328H32.2583Z" fill="#84786A"/>
<path d="M39.645 70.9328V71.1408H37.7315V70.9328H37.8606C37.9851 70.9328 38.0865 70.9097 38.1649 70.868C38.2433 70.8218 38.2802 70.7571 38.2802 70.6692V68.4038C38.2802 68.1125 38.2064 67.8906 38.0589 67.7426C37.9113 67.5947 37.6992 67.5207 37.4272 67.5207C37.2335 67.5207 37.0491 67.5669 36.8738 67.664C36.694 67.7611 36.5511 67.9044 36.4358 68.0986C36.3205 68.2928 36.2606 68.524 36.2606 68.7921V70.6692C36.2606 70.7571 36.3021 70.8218 36.3805 70.868C36.4589 70.9143 36.5603 70.9328 36.6894 70.9328H36.8139V71.1408H34.9004V70.9328H35.0571C35.1862 70.9328 35.2923 70.9097 35.3753 70.868C35.4537 70.8218 35.4952 70.7571 35.4952 70.6692V67.8998C35.4952 67.7842 35.4398 67.7241 35.32 67.7241C35.2692 67.7241 35.1909 67.7472 35.0802 67.7888L35.0249 67.6085L36.0623 67.2387H36.2652V67.8813C36.3851 67.6825 36.5695 67.5161 36.8185 67.382C37.0675 67.2479 37.3442 67.1786 37.6531 67.1786C38.1096 67.1786 38.4554 67.2803 38.6952 67.4837C38.9349 67.6871 39.0594 67.9599 39.0594 68.2974V70.6646C39.0594 70.7525 39.1009 70.8172 39.1839 70.8634C39.2669 70.9097 39.373 70.9282 39.5021 70.9282H39.6496L39.645 70.9328Z" fill="#84786A"/>
<path d="M40.8577 70.697C40.5119 70.3502 40.3367 69.8509 40.3367 69.2036C40.3367 68.5563 40.5119 68.0847 40.8669 67.7241C41.2219 67.3635 41.7107 67.1832 42.3424 67.1832C42.6052 67.1832 42.8588 67.2202 43.0986 67.2988C43.3384 67.3774 43.5366 67.5068 43.6888 67.6964L43.7718 67.1832H43.9793V68.5517H43.781C43.7257 68.2003 43.592 67.9368 43.3753 67.7611C43.1585 67.5854 42.8865 67.4976 42.5591 67.4976C42.098 67.4976 41.743 67.6548 41.494 67.9738C41.245 68.2882 41.1205 68.7043 41.1205 69.2129C41.1205 69.7214 41.2404 70.1422 41.4802 70.4566C41.7199 70.771 42.0335 70.9282 42.43 70.9282C42.7897 70.9282 43.0894 70.8357 43.3199 70.6461C43.5505 70.4566 43.698 70.1653 43.7626 69.7677H44.0116C43.9655 70.2069 43.8041 70.5583 43.5274 70.8264C43.2461 71.0946 42.8496 71.2241 42.3378 71.2241C41.7061 71.2241 41.2173 71.0484 40.8715 70.7016" fill="#84786A"/>
<path d="M47.8386 70.4612C48.0738 70.1653 48.1937 69.7446 48.1937 69.199C48.1937 68.6534 48.0738 68.2466 47.8386 67.9507C47.6035 67.6594 47.2807 67.5114 46.8749 67.5114C46.4692 67.5114 46.1418 67.6594 45.9066 67.9507C45.6715 68.2466 45.5516 68.6627 45.5516 69.199C45.5516 69.7353 45.6669 70.1653 45.9066 70.4612C46.1418 70.7571 46.4646 70.905 46.8749 70.905C47.2853 70.905 47.5989 70.7571 47.8386 70.4612ZM45.3349 70.6924C44.9706 70.341 44.7908 69.8416 44.7908 69.199C44.7908 68.5563 44.9752 68.057 45.3395 67.7056C45.7084 67.3542 46.2202 67.1786 46.8749 67.1786C47.5297 67.1786 48.0415 67.3542 48.4058 67.7056C48.77 68.057 48.9499 68.5563 48.9499 69.199C48.9499 69.8416 48.77 70.341 48.4058 70.6924C48.0415 71.0437 47.5297 71.2194 46.8749 71.2194C46.2202 71.2194 45.6992 71.0437 45.3349 70.6924Z" fill="#84786A"/>
<path d="M52.5556 67.271C52.6663 67.3265 52.7216 67.419 52.7216 67.5392C52.7216 67.6455 52.6939 67.7241 52.6432 67.7796C52.5925 67.8351 52.5187 67.8628 52.4265 67.8628C52.3666 67.8628 52.3158 67.8536 52.2836 67.8305C52.2467 67.8073 52.2144 67.7796 52.1913 67.738C52.1545 67.701 52.1176 67.6686 52.0853 67.6502C52.053 67.6317 52.0069 67.6224 51.947 67.6224C51.804 67.6224 51.6703 67.6733 51.5412 67.7796C51.4121 67.8859 51.306 68.0339 51.2231 68.2327C51.1401 68.4315 51.0939 68.6581 51.0847 68.917V70.6739C51.0847 70.7617 51.1262 70.8264 51.2092 70.8727C51.2922 70.9143 51.3983 70.9374 51.5274 70.9374H51.6657V71.1455H49.7199V70.9374H49.8767C50.0104 70.9374 50.1118 70.9143 50.1948 70.8727C50.2732 70.8264 50.3147 70.7617 50.3147 70.6739V67.9044C50.3147 67.7888 50.2594 67.7287 50.1487 67.7287C50.0934 67.7287 50.0104 67.7519 49.9043 67.7935L49.8536 67.6132L50.9049 67.2433H51.0847V68.0015C51.1631 67.7657 51.2968 67.5715 51.4951 67.4144C51.6934 67.2618 51.9101 67.1832 52.1545 67.1832C52.3112 67.1832 52.4496 67.2109 52.5602 67.271" fill="#84786A"/>
<path d="M56.6455 70.4334C56.8346 70.1191 56.9268 69.6891 56.9268 69.1435C56.9268 68.5979 56.8299 68.1911 56.6317 67.9183C56.4334 67.6455 56.1291 67.5114 55.7095 67.5114C55.5481 67.5114 55.3867 67.5577 55.2115 67.6548C55.0409 67.7519 54.8934 67.8859 54.7781 68.057C54.6582 68.2327 54.6029 68.4315 54.6029 68.6534V69.8047C54.6029 70.1144 54.7043 70.3733 54.9026 70.5814C55.1008 70.7895 55.3775 70.9004 55.7279 70.9004C56.1521 70.9004 56.4565 70.7432 56.6455 70.4242M53.238 72.7868H53.3948C53.5285 72.7868 53.6346 72.7636 53.7176 72.722C53.8006 72.6758 53.8421 72.6111 53.8421 72.5232V67.8998C53.8421 67.8397 53.8236 67.7935 53.7867 67.7704C53.7498 67.7426 53.713 67.7287 53.6668 67.7287C53.6207 67.7287 53.5423 67.7519 53.4179 67.7935L53.3625 67.6132L54.4 67.2433H54.6075V67.8767C54.7642 67.6317 54.9671 67.4513 55.2069 67.345C55.4467 67.2387 55.7003 67.1832 55.9723 67.1832C56.5072 67.1832 56.9314 67.3496 57.2403 67.6779C57.5492 68.0062 57.7014 68.4824 57.7014 69.1019C57.7014 69.8463 57.54 70.3826 57.2126 70.7155C56.8853 71.0484 56.4103 71.2194 55.7879 71.2194C55.5297 71.2194 55.2899 71.1639 55.0732 71.053C54.8519 70.942 54.6997 70.8079 54.6121 70.6507V72.514C54.6121 72.6018 54.6536 72.6666 54.7366 72.7174C54.8196 72.7636 54.921 72.7868 55.0501 72.7868H55.1884V72.9948H53.2472V72.7868H53.238Z" fill="#84786A"/>
<path d="M61.4732 70.4612C61.7083 70.1653 61.8282 69.7446 61.8282 69.199C61.8282 68.6534 61.7083 68.2466 61.4732 67.9507C61.238 67.6594 60.9152 67.5114 60.5095 67.5114C60.1037 67.5114 59.7763 67.6594 59.5412 67.9507C59.306 68.2466 59.1861 68.6627 59.1861 69.199C59.1861 69.7353 59.3014 70.1653 59.5412 70.4612C59.7763 70.7571 60.0991 70.905 60.5095 70.905C60.9198 70.905 61.2334 70.7571 61.4732 70.4612ZM58.974 70.6924C58.6098 70.341 58.4299 69.8416 58.4299 69.199C58.4299 68.5563 58.6144 68.057 58.9786 67.7056C59.3475 67.3542 59.8593 67.1786 60.5141 67.1786C61.1688 67.1786 61.6806 67.3542 62.0449 67.7056C62.4092 68.057 62.5936 68.5563 62.5936 69.199C62.5936 69.8416 62.4092 70.341 62.0449 70.6924C61.6806 71.0437 61.1688 71.2194 60.5141 71.2194C59.8593 71.2194 59.3383 71.0437 58.974 70.6924Z" fill="#84786A"/>
<path d="M66.1901 67.271C66.3008 67.3265 66.3607 67.419 66.3607 67.5392C66.3607 67.6455 66.3331 67.7241 66.2823 67.7796C66.2316 67.8351 66.1578 67.8628 66.0656 67.8628C66.0057 67.8628 65.955 67.8536 65.9227 67.8305C65.8858 67.8073 65.8581 67.7796 65.8305 67.738C65.7936 67.701 65.7567 67.6686 65.7244 67.6502C65.6921 67.6317 65.646 67.6224 65.5861 67.6224C65.4432 67.6224 65.3094 67.6733 65.1803 67.7796C65.0512 67.8859 64.9452 68.0339 64.8622 68.2327C64.7792 68.4315 64.7331 68.6581 64.7238 68.917V70.6739C64.7238 70.7617 64.7653 70.8264 64.8483 70.8727C64.9313 70.9143 65.0374 70.9374 65.1711 70.9374H65.3094V71.1455H63.3636V70.9374H63.5204C63.6541 70.9374 63.7556 70.9143 63.8385 70.8727C63.9169 70.8264 63.9584 70.7617 63.9584 70.6739V67.9044C63.9584 67.7888 63.9031 67.7287 63.7924 67.7287C63.7371 67.7287 63.6541 67.7519 63.5481 67.7935L63.4973 67.6132L64.5486 67.2433H64.7285V68.0015C64.8068 67.7657 64.9406 67.5715 65.1388 67.4144C65.3371 67.2618 65.5538 67.1832 65.7982 67.1832C65.955 67.1832 66.0933 67.2109 66.204 67.271" fill="#84786A"/>
<path d="M69.0074 70.6924C69.2287 70.5629 69.3901 70.4103 69.4869 70.2393V69.0603C68.906 69.1759 68.4587 69.3423 68.1498 69.5596C67.8408 69.7769 67.6841 70.022 67.6841 70.2901C67.6841 70.4889 67.744 70.6369 67.8639 70.7386C67.9838 70.8403 68.1498 70.8912 68.3665 70.8912C68.5832 70.8912 68.7815 70.8264 69.0028 70.6924M67.2091 70.9836C67.0201 70.8264 66.9233 70.6138 66.9233 70.3456C66.9233 69.9434 67.1354 69.6151 67.5504 69.3562C67.9699 69.0973 68.6155 68.9077 69.4869 68.7875V68.3575C69.4869 68.0755 69.3993 67.8674 69.2241 67.7241C69.0489 67.5808 68.8137 67.5114 68.5233 67.5114C68.3158 67.5114 68.1221 67.5531 67.9469 67.6363C67.7717 67.7195 67.6841 67.8073 67.6841 67.8998C67.6841 67.9322 67.6887 67.9738 67.7025 68.0246C67.7117 68.0755 67.721 68.1125 67.721 68.1402C67.721 68.2235 67.6979 68.2928 67.6472 68.3529C67.5965 68.413 67.5181 68.4454 67.4074 68.4454C67.3152 68.4454 67.2368 68.413 67.1722 68.3437C67.1077 68.2743 67.0754 68.1772 67.0754 68.0524C67.0754 67.7796 67.2322 67.5623 67.5457 67.4143C67.8593 67.2618 68.2374 67.1878 68.6892 67.1878C69.1918 67.1878 69.5838 67.2988 69.8558 67.5207C70.1279 67.7426 70.2662 68.0478 70.2662 68.4315V70.6646C70.2662 70.8403 70.3261 70.9282 70.446 70.9282C70.5244 70.9282 70.6212 70.905 70.7411 70.8634V71.0021C70.6581 71.0715 70.5567 71.127 70.4276 71.1686C70.3031 71.2056 70.174 71.2241 70.0402 71.2241C69.8927 71.2241 69.7636 71.1917 69.6529 71.1316C69.5423 71.0715 69.4869 70.9744 69.4869 70.8357V70.5906C69.2656 70.8311 69.0258 70.9975 68.7584 71.09C68.491 71.1824 68.2328 71.2241 67.9838 71.2241C67.6518 71.2241 67.389 71.1454 67.1999 70.9883" fill="#84786A"/>
<path d="M73.9273 70.7478C74.0979 70.6415 74.227 70.4982 74.3192 70.3179C74.4114 70.1375 74.4529 69.9526 74.4529 69.7538V68.5009C74.4529 68.3159 74.3976 68.1449 74.2915 67.9923C74.1855 67.8397 74.0518 67.7241 73.8858 67.6363C73.7198 67.5531 73.5492 67.5068 73.374 67.5068C72.9682 67.5068 72.6593 67.6455 72.4518 67.9229C72.2397 68.2003 72.1336 68.6072 72.1336 69.1389C72.1336 70.3132 72.5302 70.9004 73.3232 70.9004C73.5538 70.9004 73.7521 70.8449 73.9227 70.7386M71.8339 70.7201C71.525 70.3872 71.3682 69.8509 71.3682 69.1204C71.3682 68.7043 71.442 68.3483 71.5941 68.057C71.7463 67.7657 71.9492 67.5484 72.212 67.4005C72.4702 67.2572 72.7699 67.1832 73.1019 67.1832C73.7106 67.1832 74.1578 67.3774 74.4391 67.7611V65.8979C74.4391 65.7823 74.3838 65.7222 74.2731 65.7222C74.2178 65.7222 74.1348 65.7453 74.0287 65.7869L73.978 65.5974L75.0062 65.2275H75.2137V70.5675C75.2137 70.6646 75.2414 70.7386 75.3013 70.7848C75.3613 70.8311 75.4443 70.8542 75.5595 70.8542H75.7486V71.0437L74.582 71.1686L74.5405 70.5259C74.2685 70.9883 73.7889 71.2194 73.1111 71.2194C72.567 71.2194 72.1428 71.053 71.8339 70.7155" fill="#84786A"/>
<path d="M79.4742 70.4612C79.7094 70.1653 79.8293 69.7446 79.8293 69.199C79.8293 68.6534 79.7094 68.2466 79.4742 67.9507C79.2391 67.6594 78.9163 67.5114 78.5105 67.5114C78.1048 67.5114 77.7774 67.6594 77.5422 67.9507C77.3071 68.2466 77.1872 68.6627 77.1872 69.199C77.1872 69.7353 77.3025 70.1653 77.5422 70.4612C77.7774 70.7571 78.1002 70.905 78.5105 70.905C78.9209 70.905 79.2344 70.7571 79.4742 70.4612ZM76.9705 70.6924C76.6062 70.341 76.4264 69.8416 76.4264 69.199C76.4264 68.5563 76.6108 68.057 76.9751 67.7056C77.344 67.3542 77.8558 67.1786 78.5105 67.1786C79.1653 67.1786 79.6771 67.3542 80.0414 67.7056C80.4056 68.057 80.5901 68.5563 80.5901 69.199C80.5901 69.8416 80.4056 70.341 80.0414 70.6924C79.6771 71.0437 79.1653 71.2194 78.5105 71.2194C77.8558 71.2194 77.3347 71.0437 76.9705 70.6924Z" fill="#84786A"/>
<path d="M84.1866 67.271C84.2972 67.3265 84.3572 67.419 84.3572 67.5392C84.3572 67.6455 84.3295 67.7241 84.2788 67.7796C84.2281 67.8351 84.1543 67.8628 84.0621 67.8628C84.0021 67.8628 83.9514 67.8536 83.9192 67.8305C83.8823 67.8073 83.85 67.7796 83.8223 67.738C83.7854 67.701 83.7485 67.6686 83.7163 67.6502C83.684 67.6317 83.6379 67.6224 83.5779 67.6224C83.435 67.6224 83.3013 67.6733 83.1722 67.7796C83.0431 67.8859 82.937 68.0339 82.854 68.2327C82.771 68.4315 82.7249 68.6581 82.7157 68.917V70.6739C82.7157 70.7617 82.7572 70.8264 82.8402 70.8727C82.9232 70.9143 83.0292 70.9374 83.163 70.9374H83.3013V71.1455H81.3555V70.9374H81.5122C81.646 70.9374 81.7474 70.9143 81.8304 70.8727C81.9088 70.8264 81.9503 70.7617 81.9503 70.6739V67.9044C81.9503 67.7888 81.8949 67.7287 81.7843 67.7287C81.729 67.7287 81.646 67.7519 81.5399 67.7935L81.4892 67.6132L82.5405 67.2433H82.7203V68.0015C82.7987 67.7657 82.9324 67.5715 83.1307 67.4144C83.3289 67.2618 83.5457 67.1832 83.79 67.1832C83.9468 67.1832 84.0851 67.2109 84.1958 67.271" fill="#84786A"/>
<path d="M87.0039 70.6924C87.2252 70.5629 87.3866 70.4103 87.4834 70.2393V69.0603C86.9024 69.1759 86.4552 69.3423 86.1462 69.5596C85.8373 69.7769 85.6805 70.022 85.6805 70.2901C85.6805 70.4889 85.7405 70.6369 85.8603 70.7386C85.9802 70.8403 86.1462 70.8912 86.3629 70.8912C86.5797 70.8912 86.7779 70.8264 86.9992 70.6924M85.2056 70.9836C85.0165 70.8264 84.9197 70.6138 84.9197 70.3456C84.9197 69.9434 85.1318 69.6151 85.5468 69.3562C85.9664 69.0973 86.6119 68.9077 87.4834 68.7875V68.3575C87.4834 68.0755 87.3958 67.8674 87.2206 67.7241C87.0454 67.5808 86.8102 67.5114 86.5243 67.5114C86.3168 67.5114 86.1232 67.5531 85.948 67.6363C85.7727 67.7195 85.6851 67.8073 85.6851 67.8998C85.6851 67.9322 85.6897 67.9738 85.7036 68.0246C85.7128 68.0755 85.722 68.1125 85.722 68.1402C85.722 68.2235 85.699 68.2928 85.6482 68.3529C85.5975 68.413 85.5191 68.4454 85.4085 68.4454C85.3163 68.4454 85.2379 68.413 85.1733 68.3437C85.1088 68.2743 85.0765 68.1772 85.0765 68.0524C85.0765 67.7796 85.2333 67.5623 85.5468 67.4143C85.8603 67.2618 86.2384 67.1878 86.6903 67.1878C87.1929 67.1878 87.5848 67.2988 87.8569 67.5207C88.1289 67.7426 88.2672 68.0478 88.2672 68.4315V70.6646C88.2672 70.8403 88.3272 70.9282 88.4471 70.9282C88.5255 70.9282 88.6223 70.905 88.7422 70.8634V71.0021C88.6592 71.0715 88.5577 71.127 88.4286 71.1686C88.3041 71.2056 88.175 71.2241 88.0413 71.2241C87.8938 71.2241 87.7647 71.1917 87.654 71.1316C87.5433 71.0715 87.488 70.9744 87.488 70.8357V70.5906C87.2667 70.8311 87.0269 70.9975 86.7595 71.09C86.492 71.1824 86.2338 71.2241 85.9848 71.2241C85.6529 71.2241 85.39 71.1454 85.201 70.9883" fill="#84786A"/>
</g>
<defs>
<clipPath id="clip0_158_310">
<rect width="121" height="72.9946" fill="white"/>
</clipPath>
</defs>
</svg>
