<svg width="91" height="31" viewBox="0 0 91 31" fill="none" xmlns="http://www.w3.org/2000/svg">
<path d="M32.5085 15.6002L32.3417 13.8371C31.9539 10.5587 27.0467 10.1748 27.0467 13.2026V13.3788C28.1516 13.3788 29.2237 14.2124 29.3477 15.3152L29.3335 29.6107H32.6011V18.0967C32.6011 14.9643 36.2266 14.2109 38.348 14.3384C39.2747 14.3943 39.8777 13.8787 39.8777 13.0064V10.6589C39.8777 10.6589 35.3355 9.62769 32.5085 15.6002Z" fill="#84786A"/>
<path d="M19.0844 28.0223C19.6817 29.5162 20.4858 29.5849 20.7638 29.5849L23.6793 29.5806L15.1153 1.17016C14.9086 0.484106 14.2913 0.0257808 13.5613 0.0171872C12.7829 0.0085936 10.9823 0 10.2438 0C11.6581 2.56376 1.98493 24.0692 1.27067 25.6419C0.55641 27.2145 1.13381 28.9619 2.76619 29.7339C4.23035 30.4256 5.65174 30.1063 7.15725 28.5436C8.04544 27.6213 8.41896 27.1042 9.28719 26.2062C12.3852 22.9993 17.5304 24.1351 19.083 28.0237L19.0844 28.0223ZM8.63851 25.0346C8.47599 25.1291 8.31346 25.2237 8.14666 25.3096C7.00755 25.9026 5.82995 26.6559 4.65235 25.7765C3.44481 24.8756 3.76559 23.4219 4.11487 22.1729C4.60815 20.4012 9.72202 7.36042 11.6581 2.56376C13.875 9.96285 16.1147 17.435 18.4414 25.1993C15.2379 22.3204 11.9746 23.0753 8.63851 25.0346Z" fill="#84786A"/>
<path d="M89.2514 12.2803C88.3204 11.133 87.1414 10.5515 85.7486 10.5515C84.5638 10.5515 83.3734 10.9697 82.2072 11.7962C81.1893 12.518 80.0687 13.5106 79.1035 15.0603C78.8098 13.7054 78.2937 12.5037 77.5652 11.8119C75.9941 10.3195 73.5406 9.9471 70.933 11.7962C69.9636 12.4836 68.8073 13.3931 67.9776 14.8727L67.8265 13.7841C67.4187 10.3309 62.5316 10.2135 62.5316 13.1496V13.3258C63.6365 13.3258 64.7086 14.1594 64.8326 15.2622L64.8183 29.6107H68.0931V15.9712C69.0597 14.9185 69.9393 14.1379 70.7135 13.6438C71.5689 13.0981 72.3986 12.8202 73.177 12.8202C74.0609 12.8202 74.751 13.1869 75.2856 13.9403C75.8259 14.7037 76.0996 15.9354 76.0996 17.6011V29.6107H79.3673V16.0027C80.3253 14.9343 81.2064 14.1422 81.9876 13.6438C82.843 13.0981 83.6728 12.8202 84.4512 12.8202C85.3351 12.8202 86.0251 13.1869 86.5598 13.9403C87.1001 14.7037 87.3738 15.9354 87.3738 17.6011V29.6107H90.6414V17.783C90.6414 15.268 90.1738 13.4175 89.2514 12.2803Z" fill="#84786A"/>
<path d="M58.1804 20.3396C58.1804 20.3396 55.1238 20.7521 54.7688 22.7874C53.326 31.0716 45.9667 27.9464 45.9667 24.2512C45.9667 17.7501 58.3544 19.7882 58.3544 14.9443C58.3544 10.1004 53.7038 10.3453 49.0861 10.9282C47.0132 11.1903 44.9887 12.1943 44.9887 12.1943L44.9916 14.3742C44.9916 15.543 46.0024 16.0901 46.949 15.2537C55.2963 7.87891 59.2254 13.598 54.7873 16.4281C51.514 18.5149 47.4038 18.9818 44.6936 20.765C39.8749 23.9332 41.2378 30.0791 47.7588 30.0791C52.1784 30.0791 54.5806 27.12 55.245 24.7023C55.245 24.7023 55.6485 29.6093 59.1642 29.6093L58.8918 28.293C58.1562 24.8398 58.1804 20.3396 58.1804 20.3396Z" fill="#84786A"/>
</svg>
