<svg width="90" height="31" viewBox="0 0 90 31" fill="none" xmlns="http://www.w3.org/2000/svg">
<path d="M31.5392 15.6002L31.3724 13.8371C30.9846 10.5587 26.0775 10.1748 26.0775 13.2026V13.3788C27.1824 13.3788 28.2545 14.2124 28.3785 15.3152L28.3643 29.6107H31.6319V18.0967C31.6319 14.9643 35.2574 14.2109 37.3787 14.3384C38.3054 14.3943 38.9085 13.8787 38.9085 13.0064V10.6589C38.9085 10.6589 34.3663 9.62769 31.5392 15.6002Z" fill="#B8AE9A"/>
<path d="M18.1151 28.0223C18.7125 29.5162 19.5166 29.5849 19.7946 29.5849L22.7101 29.5806L14.1461 1.17016C13.9394 0.484106 13.322 0.0257808 12.5921 0.0171872C11.8137 0.0085936 10.0131 0 9.27458 0C10.6888 2.56376 1.01569 24.0692 0.301431 25.6419C-0.412828 27.2145 0.164567 28.9619 1.79696 29.7339C3.26112 30.4256 4.6825 30.1063 6.18801 28.5436C7.0762 27.6213 7.44972 27.1042 8.31796 26.2062C11.4159 22.9993 16.5612 24.1351 18.1137 28.0237L18.1151 28.0223ZM7.66928 25.0346C7.50675 25.1291 7.34422 25.2237 7.17742 25.3096C6.03831 25.9026 4.86071 26.6559 3.68311 25.7765C2.47557 24.8756 2.79635 23.4219 3.14564 22.1729C3.63892 20.4012 8.75278 7.36042 10.6888 2.56376C12.9058 9.96285 15.1455 17.435 17.4722 25.1993C14.2687 22.3204 11.0053 23.0753 7.66928 25.0346Z" fill="#B8AE9A"/>
<path d="M88.2822 12.2803C87.3512 11.133 86.1722 10.5515 84.7793 10.5515C83.5946 10.5515 82.4041 10.9697 81.238 11.7962C80.22 12.518 79.0994 13.5106 78.1343 15.0603C77.8406 13.7054 77.3245 12.5037 76.596 11.8119C75.0249 10.3195 72.5713 9.9471 69.9638 11.7962C68.9943 12.4836 67.8381 13.3931 67.0084 14.8727L66.8573 13.7841C66.4495 10.3309 61.5623 10.2135 61.5623 13.1496V13.3258C62.6672 13.3258 63.7393 14.1594 63.8633 15.2622L63.8491 29.6107H67.1238V15.9712C68.0904 14.9185 68.9701 14.1379 69.7442 13.6438C70.5996 13.0981 71.4294 12.8202 72.2078 12.8202C73.0917 12.8202 73.7817 13.1869 74.3163 13.9403C74.8567 14.7037 75.1304 15.9354 75.1304 17.6011V29.6107H78.398V16.0027C79.3561 14.9343 80.2371 14.1422 81.0184 13.6438C81.8738 13.0981 82.7035 12.8202 83.4819 12.8202C84.3659 12.8202 85.0559 13.1869 85.5905 13.9403C86.1308 14.7037 86.4046 15.9354 86.4046 17.6011V29.6107H89.6722V17.783C89.6722 15.268 89.2046 13.4175 88.2822 12.2803Z" fill="#B8AE9A"/>
<path d="M57.2112 20.3396C57.2112 20.3396 54.1546 20.7521 53.7996 22.7874C52.3568 31.0716 44.9975 27.9464 44.9975 24.2512C44.9975 17.7501 57.3851 19.7882 57.3851 14.9443C57.3851 10.1004 52.7346 10.3453 48.1169 10.9282C46.044 11.1903 44.0195 12.1943 44.0195 12.1943L44.0224 14.3742C44.0224 15.543 45.0332 16.0901 45.9798 15.2537C54.3271 7.87891 58.2562 13.598 53.8181 16.4281C50.5448 18.5149 46.4346 18.9818 43.7244 20.765C38.9056 23.9332 40.2686 30.0791 46.7896 30.0791C51.2091 30.0791 53.6114 27.12 54.2758 24.7023C54.2758 24.7023 54.6792 29.6093 58.1949 29.6093L57.9226 28.293C57.187 24.8398 57.2112 20.3396 57.2112 20.3396Z" fill="#B8AE9A"/>
</svg>
