<svg width="91" height="31" viewBox="0 0 91 31" fill="none" xmlns="http://www.w3.org/2000/svg">
<path d="M32.5085 16.3434L32.3417 14.5803C31.9539 11.3018 27.0467 10.918 27.0467 13.9458V14.122C28.1516 14.122 29.2237 14.9555 29.3477 16.0584L29.3335 30.3538H32.6011V18.8399C32.6011 15.7075 36.2266 14.9541 38.348 15.0816C39.2747 15.1374 39.8777 14.6218 39.8777 13.7496V11.4021C39.8777 11.4021 35.3355 10.3709 32.5085 16.3434Z" fill="#FFF6EC"/>
<path d="M19.0844 28.7655C19.6817 30.2593 20.4858 30.3281 20.7638 30.3281L23.6793 30.3238L15.1153 1.91333C14.9086 1.22727 14.2913 0.768945 13.5613 0.760351C12.7829 0.751758 10.9823 0.743164 10.2438 0.743164C11.6581 3.30692 1.98493 24.8124 1.27067 26.385C0.55641 27.9577 1.13381 29.705 2.76619 30.477C4.23035 31.1688 5.65174 30.8494 7.15725 29.2868C8.04544 28.3644 8.41896 27.8474 9.28719 26.9494C12.3852 23.7425 17.5304 24.8783 19.083 28.7669L19.0844 28.7655ZM8.63851 25.7778C8.47599 25.8723 8.31346 25.9668 8.14666 26.0528C7.00755 26.6457 5.82995 27.3991 4.65235 26.5197C3.44481 25.6188 3.76559 24.165 4.11487 22.9161C4.60815 21.1444 9.72202 8.10358 11.6581 3.30692C13.875 10.706 16.1147 18.1782 18.4414 25.9425C15.2379 23.0636 11.9746 23.8184 8.63851 25.7778Z" fill="#FFF6EC"/>
<path d="M89.2514 13.0234C88.3204 11.8762 87.1414 11.2947 85.7486 11.2947C84.5638 11.2947 83.3734 11.7129 82.2072 12.5393C81.1893 13.2612 80.0687 14.2537 79.1035 15.8035C78.8098 14.4485 78.2937 13.2469 77.5652 12.5551C75.9941 11.0627 73.5406 10.6903 70.933 12.5393C69.9636 13.2268 68.8073 14.1363 67.9776 15.6158L67.8265 14.5273C67.4187 11.0741 62.5316 10.9567 62.5316 13.8928V14.069C63.6365 14.069 64.7086 14.9026 64.8326 16.0054L64.8183 30.3539H68.0931V16.7144C69.0597 15.6617 69.9393 14.8811 70.7135 14.3869C71.5689 13.8413 72.3986 13.5634 73.177 13.5634C74.0609 13.5634 74.751 13.9301 75.2856 14.6834C75.8259 15.4468 76.0996 16.6786 76.0996 18.3443V30.3539H79.3673V16.7459C80.3253 15.6774 81.2064 14.8854 81.9876 14.3869C82.843 13.8413 83.6728 13.5634 84.4512 13.5634C85.3351 13.5634 86.0251 13.9301 86.5598 14.6834C87.1001 15.4468 87.3738 16.6786 87.3738 18.3443V30.3539H90.6414V18.5262C90.6414 16.0111 90.1738 14.1606 89.2514 13.0234Z" fill="#FFF6EC"/>
<path d="M58.1804 21.0828C58.1804 21.0828 55.1238 21.4953 54.7688 23.5305C53.326 31.8148 45.9667 28.6896 45.9667 24.9943C45.9667 18.4933 58.3544 20.5314 58.3544 15.6874C58.3544 10.8435 53.7038 11.0884 49.0861 11.6714C47.0132 11.9335 44.9887 12.9375 44.9887 12.9375L44.9916 15.1174C44.9916 16.2861 46.0024 16.8333 46.949 15.9968C55.2963 8.62207 59.2254 14.3411 54.7873 17.1713C51.514 19.2581 47.4038 19.725 44.6936 21.5082C39.8749 24.6764 41.2378 30.8222 47.7588 30.8222C52.1784 30.8222 54.5806 27.8631 55.245 25.4455C55.245 25.4455 55.6485 30.3524 59.1642 30.3524L58.8918 29.0362C58.1562 25.583 58.1804 21.0828 58.1804 21.0828Z" fill="#FFF6EC"/>
</svg>
