<svg width="241" height="92" viewBox="0 0 241 92" fill="none" xmlns="http://www.w3.org/2000/svg">
<path d="M42 40.3865V0H44.9173V16.572C46.236 14.7306 47.893 13.2699 49.8768 12.1773C51.8606 11.0971 54.0194 10.557 56.3533 10.557C59.0022 10.557 61.4061 11.2321 63.5883 12.5824C65.7704 13.9327 67.4975 15.7495 68.7811 18.045C70.0647 20.3406 70.7066 22.8693 70.7066 25.6559C70.7066 28.4424 70.0647 30.9712 68.7811 33.2667C67.4975 35.5622 65.7704 37.379 63.5883 38.7293C61.4061 40.0796 59.0022 40.7548 56.3533 40.7548C54.0194 40.7548 51.8606 40.2147 49.8768 39.1221C47.893 38.0419 46.236 36.5811 44.9173 34.7398V40.3865H42ZM44.9173 32.4688C46.0026 34.4697 47.5313 36.1392 49.4917 37.4772C51.4522 38.803 53.7393 39.4659 56.3533 39.4659C58.3021 39.4659 59.9708 39.0608 61.3711 38.2383C62.7714 37.4158 63.9267 36.3479 64.8486 35.0221C65.7588 33.6964 66.4356 32.211 66.8557 30.5784C67.2874 28.9457 67.4975 27.3008 67.4975 25.6682C67.4975 24.0355 67.2874 22.3906 66.8557 20.7579C66.4239 19.1253 65.7704 17.6399 64.8719 16.3142C63.9734 14.9884 62.8181 13.9082 61.4061 13.098C59.9824 12.2755 58.3021 11.8704 56.3533 11.8704C53.751 11.8704 51.4638 12.5333 49.4917 13.8591C47.5313 15.1848 46.0026 16.8789 44.9173 18.9166V32.4811V32.4688Z" fill="#E3DED1"/>
<path d="M91.0113 10.557C91.7931 10.557 92.54 10.6429 93.2635 10.8025C93.987 10.9621 94.6754 11.2689 95.3289 11.7231L94.8038 12.9507C94.1387 12.4965 93.4502 12.2019 92.7383 12.0546C92.0148 11.9073 91.3263 11.8459 90.6612 11.8459C89.3776 11.8459 88.1873 12.1528 87.067 12.7666C85.9585 13.3803 85.0016 14.1537 84.2081 15.0989C83.4145 16.0441 82.7961 17.0016 82.3643 17.9837C81.9325 18.8798 81.6408 19.9723 81.4541 21.2612C81.2791 22.5502 81.1974 23.9987 81.1974 25.5945V40.3865H78.3384V10.9252H81.1974V17.4313C81.7458 16.2037 82.5043 15.0744 83.4962 14.0309C84.4881 12.9875 85.6317 12.1528 86.9387 11.5145C88.2456 10.8761 89.5993 10.5692 90.9879 10.5692L91.0113 10.557Z" fill="#E3DED1"/>
<path d="M127.303 10.9252V40.3865H124.385V34.7398C123.067 36.5811 121.41 38.0419 119.426 39.1221C117.442 40.2024 115.283 40.7548 112.949 40.7548C110.301 40.7548 107.897 40.0796 105.714 38.7293C103.532 37.379 101.805 35.5622 100.522 33.2667C99.238 30.9712 98.5962 28.4424 98.5962 25.6559C98.5962 22.8693 99.238 20.3406 100.522 18.045C101.805 15.7495 103.532 13.9327 105.714 12.5824C107.897 11.2321 110.301 10.557 112.949 10.557C115.283 10.557 117.442 11.0971 119.426 12.1773C121.41 13.2576 123.067 14.7306 124.385 16.572V10.9252H127.303ZM112.949 39.4659C115.552 39.4659 117.839 38.803 119.811 37.4772C121.771 36.1515 123.3 34.482 124.385 32.4688V18.9043C123.3 16.8543 121.771 15.1726 119.811 13.8468C117.851 12.521 115.563 11.8582 112.949 11.8582C111.001 11.8582 109.32 12.2633 107.897 13.0857C106.473 13.9082 105.318 14.9762 104.431 16.3019C103.532 17.6277 102.879 19.113 102.447 20.7457C102.015 22.3783 101.805 24.0232 101.805 25.6559C101.805 27.2885 102.015 28.9334 102.447 30.5661C102.879 32.1987 103.544 33.6841 104.454 35.0098C105.364 36.3356 106.531 37.4158 107.932 38.226C109.332 39.0485 111.001 39.4536 112.949 39.4536V39.4659Z" fill="#E3DED1"/>
<path d="M160.619 10.9252L147.374 40.7548L134.013 10.9252H137.222L148.308 35.7218L159.335 10.9252H160.619Z" fill="#E3DED1"/>
<path d="M192.884 10.9252V40.3865H189.967V34.7398C188.648 36.5811 186.991 38.0419 185.007 39.1221C183.024 40.2024 180.865 40.7548 178.531 40.7548C175.882 40.7548 173.478 40.0796 171.296 38.7293C169.114 37.379 167.387 35.5622 166.103 33.2667C164.82 30.9712 164.178 28.4424 164.178 25.6559C164.178 22.8693 164.82 20.3406 166.103 18.045C167.387 15.7495 169.114 13.9327 171.296 12.5824C173.478 11.2321 175.882 10.557 178.531 10.557C180.865 10.557 183.024 11.0971 185.007 12.1773C186.991 13.2576 188.648 14.7306 189.967 16.572V10.9252H192.884ZM178.531 39.4659C181.133 39.4659 183.42 38.803 185.393 37.4772C187.353 36.1515 188.882 34.482 189.979 32.4688V18.9043C188.893 16.8543 187.365 15.1726 185.393 13.8468C183.432 12.521 181.145 11.8582 178.531 11.8582C176.582 11.8582 174.902 12.2633 173.49 13.0857C172.066 13.9082 170.911 14.9762 170.012 16.3019C169.114 17.6277 168.46 19.113 168.029 20.7457C167.597 22.3783 167.387 24.0232 167.387 25.6559C167.387 27.2885 167.597 28.9334 168.029 30.5661C168.46 32.1987 169.126 33.6841 170.047 35.0098C170.958 36.3356 172.113 37.4158 173.513 38.226C174.914 39.0485 176.582 39.4536 178.531 39.4536V39.4659Z" fill="#E3DED1"/>
<path d="M19.7212 87.3356C21.3199 86.4395 22.6385 85.2119 23.6887 83.6529L25.9059 85.617C25.5558 86.1449 25.0891 86.7218 24.5056 87.3356C23.1403 88.7718 21.5883 89.8644 19.8379 90.6132C18.0875 91.3743 16.2554 91.7425 14.3533 91.7425C12.4512 91.7425 10.6191 91.362 8.8687 90.6132C7.1183 89.8521 5.56628 88.7596 4.20097 87.3356C2.83565 85.8625 1.79707 84.2176 1.07358 82.3886C0.350078 80.5718 0 78.6568 0 76.6559C0 74.655 0.361747 72.7277 1.07358 70.8864C1.78541 69.045 2.83565 67.4124 4.20097 65.9762C5.56628 64.5399 7.1183 63.4474 8.8687 62.6986C10.6191 61.9375 12.4512 61.5692 14.3533 61.5692C16.2554 61.5692 18.0875 61.9498 19.8379 62.6986C21.5883 63.4597 23.1403 64.5522 24.5056 65.9762C25.0891 66.5899 25.5558 67.1669 25.9059 67.6947L23.6887 69.6588C22.6385 68.0998 21.3199 66.8723 19.7212 65.9762C18.1225 65.08 16.3371 64.6259 14.3533 64.6259C11.3543 64.6259 9.37047 65.792 8.37857 68.1244C7.38668 70.4567 6.89658 73.3047 6.89658 76.6559C6.89658 80.0071 7.38668 82.855 8.37857 85.1874C9.37047 87.5197 11.3659 88.6859 14.3533 88.6859C16.3371 88.6859 18.1225 88.2317 19.7212 87.3356Z" fill="#E3DED1"/>
<path d="M59.2454 70.8496C59.9689 72.6663 60.319 74.6059 60.319 76.6559C60.319 78.7059 59.9572 80.6332 59.2454 82.4499C58.5219 84.2667 57.4833 85.8994 56.1297 87.3356C54.7644 88.7718 53.2123 89.8644 51.4619 90.6132C49.7115 91.3743 47.8794 91.7425 45.9773 91.7425C44.0752 91.7425 42.2548 91.362 40.5278 90.6132C38.8007 89.8521 37.2487 88.7596 35.895 87.3356C34.5297 85.8994 33.4795 84.2667 32.7443 82.4254C32.0092 80.5841 31.6357 78.6568 31.6357 76.6559C31.6357 74.655 32.0092 72.7277 32.7443 70.8864C33.4795 69.045 34.5297 67.4124 35.895 65.9762C37.2604 64.5399 38.8007 63.4474 40.5278 62.6986C42.2548 61.9375 44.0752 61.5692 45.9773 61.5692C47.8794 61.5692 49.7115 61.9498 51.4619 62.6986C53.2123 63.4597 54.7644 64.5522 56.1297 65.9762C57.495 67.4124 58.5336 69.0328 59.2454 70.8496ZM53.5041 76.6559C53.5041 68.64 50.9952 64.6259 45.9773 64.6259C40.9595 64.6259 38.509 68.64 38.509 76.6559C38.509 84.6718 40.9945 88.6859 45.9773 88.6859C50.9601 88.6859 53.5041 84.6718 53.5041 76.6559Z" fill="#E3DED1"/>
<path d="M92.771 68.9223C93.2377 70.5181 93.4711 72.4454 93.4711 74.6918V91.3865H86.8779V73.5256C86.8779 70.1744 86.3645 67.8543 85.3259 66.5899C84.299 65.3256 83.0387 64.6872 81.5684 64.6872C80.2848 64.6872 78.9895 65.301 77.6825 66.5286C76.3756 67.7561 75.512 69.3274 75.0919 71.2547C74.7419 72.7645 74.5668 74.7532 74.5668 77.2083V91.3865H67.9736V61.9252H74.5668V66.2217C75.3837 64.9082 76.5156 63.8034 77.9743 62.9073C79.4329 62.0112 81.0783 61.557 82.8987 61.557C84.4507 61.557 85.8744 61.7902 87.158 62.2567C88.4416 62.7232 89.5852 63.5824 90.6005 64.81C91.569 65.9516 92.2925 67.3265 92.7593 68.9223H92.771Z" fill="#E3DED1"/>
<path d="M120.719 87.3356C122.318 86.4395 123.637 85.2119 124.687 83.6529L126.904 85.617C126.554 86.1449 126.087 86.7218 125.504 87.3356C124.138 88.7718 122.586 89.8644 120.836 90.6132C119.086 91.3743 117.253 91.7425 115.351 91.7425C113.449 91.7425 111.617 91.362 109.867 90.6132C108.116 89.8521 106.564 88.7596 105.199 87.3356C103.834 85.8625 102.795 84.2176 102.083 82.3886C101.36 80.5718 101.01 78.6568 101.01 76.6559C101.01 74.655 101.372 72.7277 102.083 70.8864C102.807 69.045 103.845 67.4124 105.199 65.9762C106.564 64.5399 108.116 63.4474 109.867 62.6986C111.617 61.9375 113.449 61.5692 115.351 61.5692C117.253 61.5692 119.086 61.9498 120.836 62.6986C122.586 63.4597 124.138 64.5522 125.504 65.9762C126.087 66.5899 126.554 67.1669 126.904 67.6947L124.687 69.6588C123.637 68.0998 122.318 66.8723 120.719 65.9762C119.121 65.08 117.335 64.6259 115.351 64.6259C112.352 64.6259 110.369 65.792 109.377 68.1244C108.385 70.4567 107.895 73.3047 107.895 76.6559C107.895 80.0071 108.385 82.855 109.377 85.1874C110.369 87.5197 112.364 88.6859 115.351 88.6859C117.335 88.6859 119.121 88.2317 120.719 87.3356Z" fill="#E3DED1"/>
<path d="M160.442 78.2517H139.554C139.822 85.2119 142.296 88.6859 146.964 88.6859C148.912 88.6859 150.663 88.2563 152.215 87.397C153.767 86.5377 155.051 85.3961 156.066 83.9598L156.299 83.6529L158.516 85.617C158.166 86.1449 157.699 86.7218 157.116 87.3356C155.751 88.7718 154.199 89.8644 152.448 90.6132C150.698 91.3743 148.866 91.7425 146.964 91.7425C145.062 91.7425 143.241 91.362 141.514 90.6132C139.787 89.8521 138.212 88.7596 136.811 87.3356C135.446 85.8625 134.407 84.2176 133.696 82.3886C132.972 80.5718 132.622 78.6568 132.622 76.6559C132.622 74.655 132.984 72.7277 133.696 70.8864C134.419 69.045 135.458 67.4124 136.811 65.9762C138.212 64.5399 139.775 63.4474 141.514 62.6986C143.241 61.9375 145.062 61.5692 146.964 61.5692C149.449 61.5692 151.725 62.2567 153.79 63.6193C155.856 64.9941 157.478 66.8355 158.656 69.1433C159.847 71.4511 160.43 73.9553 160.43 76.6559V78.2517H160.442ZM139.554 75.1828H153.557C153.557 72.0771 153.137 69.5361 152.297 67.572C151.456 65.6079 149.683 64.6259 146.952 64.6259C142.203 64.6259 139.74 68.1489 139.542 75.1828H139.554Z" fill="#E3DED1"/>
<path d="M184.131 91.0796C183.862 91.2392 183.325 91.3988 182.52 91.5461C181.727 91.6934 180.968 91.7548 180.28 91.7548C179.148 91.7548 177.806 91.5216 176.23 91.0428C174.655 90.5763 173.395 89.803 172.461 88.735C171.644 87.8389 171.049 86.7095 170.688 85.3592C170.314 84.0089 170.127 82.3763 170.127 80.449V64.7363H164.234V61.6674H170.127V51H176.721V61.6797H182.205V64.7486H176.721V80.9523C176.721 83.1251 176.989 84.9419 177.537 86.4149C178.086 87.888 179.229 88.6245 180.98 88.6245C181.715 88.6245 182.52 88.4772 183.372 88.1949L184.131 91.0796Z" fill="#E3DED1"/>
<path d="M207.528 91.0796C207.259 91.2392 206.722 91.3988 205.917 91.5461C205.124 91.6934 204.365 91.7548 203.677 91.7548C202.545 91.7548 201.203 91.5216 199.627 91.0428C198.052 90.5763 196.792 89.803 195.858 88.735C195.041 87.8389 194.446 86.7095 194.084 85.3592C193.711 84.0089 193.524 82.3763 193.524 80.449V64.7363H187.631V61.6674H193.524V51H200.118V61.6797H205.602V64.7486H200.118V80.9523C200.118 83.1251 200.386 84.9419 200.934 86.4149C201.483 87.888 202.626 88.6245 204.377 88.6245C205.112 88.6245 205.917 88.4772 206.769 88.1949L207.528 91.0796Z" fill="#E3DED1"/>
<path d="M239.011 70.8496C239.735 72.6663 240.085 74.6059 240.085 76.6559C240.085 78.7059 239.723 80.6332 239.011 82.4499C238.288 84.2667 237.249 85.8994 235.895 87.3356C234.53 88.7718 232.978 89.8644 231.228 90.6132C229.477 91.3743 227.645 91.7425 225.743 91.7425C223.841 91.7425 222.02 91.362 220.293 90.6132C218.566 89.8521 217.014 88.7596 215.661 87.3356C214.295 85.8994 213.245 84.2667 212.51 82.4254C211.775 80.5841 211.401 78.6568 211.401 76.6559C211.401 74.655 211.775 72.7277 212.51 70.8864C213.245 69.045 214.295 67.4124 215.661 65.9762C217.026 64.5399 218.566 63.4474 220.293 62.6986C222.02 61.9375 223.841 61.5692 225.743 61.5692C227.645 61.5692 229.477 61.9498 231.228 62.6986C232.978 63.4597 234.53 64.5522 235.895 65.9762C237.261 67.4124 238.299 69.0328 239.011 70.8496ZM233.258 76.6559C233.258 68.64 230.749 64.6259 225.731 64.6259C220.713 64.6259 218.263 68.64 218.263 76.6559C218.263 84.6718 220.749 88.6859 225.731 88.6859C230.714 88.6859 233.258 84.6718 233.258 76.6559Z" fill="#E3DED1"/>
</svg>
