<svg width="256" height="23" viewBox="0 0 256 23" fill="none" xmlns="http://www.w3.org/2000/svg">
<path d="M6.03883 20.3265C6.03883 20.66 6.03883 20.6543 6.28611 20.89C6.37237 20.9763 6.45863 21.0051 6.58514 21.0108C7.02219 21.0223 7.39023 20.8613 7.71226 20.5853C7.75251 20.5508 7.77552 20.476 7.76402 20.4242C7.75827 20.384 7.69501 20.3495 7.649 20.3265C7.44198 20.2345 7.23496 20.1425 7.02219 20.0562C6.93018 20.016 6.90142 19.9527 6.91293 19.8549C6.92443 19.6537 6.87267 19.4696 6.76341 19.2971C6.63115 19.0959 6.42987 19.0959 6.29761 19.2971C6.09634 19.6134 6.04458 19.9642 6.04458 20.3322M7.89628 14.6621C7.86753 14.9727 7.86753 15.266 7.81002 15.5535C7.71226 16.0595 7.72376 16.6116 7.1602 16.9221C7.00494 17.0084 6.90718 17.2212 6.80366 17.3822C6.7174 17.5087 6.82667 17.8135 6.97618 17.8652C7.33847 17.9802 7.70076 18.0953 8.0803 17.8997C8.18956 17.8422 8.24707 17.802 8.24132 17.6697C8.20106 16.8301 8.16656 15.9848 8.1263 15.1452C8.12055 14.9784 8.10905 14.8117 8.1033 14.6334C8.02279 14.6449 7.96529 14.6564 7.90203 14.6679M4.72194 15.3867C4.58393 15.3867 4.44016 15.3522 4.33665 15.3925C4.09513 15.496 3.87085 15.6282 3.64658 15.7605C3.56032 15.8123 3.47406 15.8755 3.4223 15.956C2.98526 16.5886 2.65172 17.2729 2.36419 17.986C2.34694 18.0205 2.34694 18.0895 2.36994 18.1125C2.68623 18.4575 2.69773 18.8601 2.59997 19.2799C2.53096 19.5732 2.43895 19.8607 2.36419 20.154C2.35269 20.1942 2.36419 20.2575 2.39294 20.2862C2.72073 20.6255 3.12327 20.7003 3.57182 20.6025C4.37116 20.4358 5.06123 19.5904 5.17049 18.7566C5.18199 18.6761 5.18199 18.5726 5.13599 18.515C4.85996 18.1758 4.54367 17.894 4.04912 17.986C3.99737 17.9975 3.93986 17.9975 3.8881 17.986C3.72134 17.9515 3.56032 17.9112 3.3993 17.8652C3.3648 17.8537 3.31879 17.8077 3.31304 17.7675C3.27279 17.5777 3.27279 17.3879 3.43381 17.2442C3.56032 17.1291 3.67533 17.0026 3.80184 16.8876C3.98586 16.7151 4.18714 16.5598 4.35965 16.3816C4.61268 16.117 4.72769 15.7893 4.72769 15.3867M9.74223 22.0977C9.79398 21.8274 9.59846 21.8216 9.4432 21.7871C9.28793 21.7526 9.16717 21.8562 9.09816 21.9712C9.0349 22.0804 8.96589 22.0919 8.85663 22.0919C7.36722 22.0689 5.87207 22.0459 4.37691 22.0287C3.24979 22.0172 2.12267 22.0172 0.995546 21.9942C0.673512 21.9884 0.351477 21.9252 0.0409444 21.8907C0.0236925 21.8504 0.0179419 21.8389 0.0179419 21.8331C-0.0395642 21.5054 0.0294431 21.2868 0.397482 21.1546C0.673512 21.0511 0.903536 20.8038 1.14506 20.6198C1.24857 20.5393 1.26007 20.43 1.22557 20.315C1.18532 20.1942 1.14506 20.0735 1.07605 19.97C0.955292 19.7859 0.897786 19.5962 0.909287 19.3719C0.926539 19.1074 0.915037 18.8428 0.909287 18.5783C0.909287 18.4748 0.932289 18.4115 1.03005 18.3598C1.23132 18.2505 1.43259 18.1355 1.62236 18.0032C1.70287 17.9515 1.77763 17.8652 1.80638 17.779C1.99615 17.2442 2.18017 16.6979 2.36419 16.1573C2.49646 15.772 2.70923 15.45 3.02551 15.1854C3.3878 14.8807 3.72134 14.5414 4.07787 14.2251C4.19289 14.1273 4.3309 14.0468 4.46892 13.9893C4.68169 13.9031 4.83695 13.7823 4.93471 13.5753C5.06698 13.2877 5.20499 13.0002 5.34301 12.7127C5.40051 12.5977 5.46952 12.4942 5.53853 12.3849C5.63054 12.2411 5.61329 12.0686 5.48677 11.9651C5.33151 11.8386 5.16474 11.7236 5.00372 11.5971C4.97497 11.5741 4.94622 11.5338 4.94622 11.4993C4.95772 11.3498 4.96922 11.206 4.99797 11.0623C5.02672 10.9242 5.10148 10.861 5.26825 10.8322C5.64204 10.7747 6.00433 10.6482 6.37812 10.585C6.60239 10.5447 6.84392 10.5217 7.05669 10.5677C7.34422 10.6367 7.38448 10.7345 7.34422 10.9702C7.32697 11.0565 7.32697 11.1485 7.32697 11.2405C7.33847 11.459 7.31547 11.6603 7.17745 11.8443C7.09694 11.9536 7.11995 12.0456 7.24071 12.1204C7.41323 12.2239 7.57425 12.3446 7.74676 12.4481C7.84452 12.5057 7.88478 12.4597 7.90203 12.3504C7.98829 11.7466 8.0803 11.137 8.17806 10.5332C8.29307 9.83162 8.42534 9.13005 8.35058 8.41697C8.32758 8.1927 8.25282 7.96267 8.17231 7.7499C8.07455 7.50837 7.86753 7.37036 7.60875 7.32435C7.53399 7.3071 7.44198 7.3071 7.37297 7.33586C7.1027 7.43362 6.83817 7.54863 6.56789 7.64639C6.1826 7.7844 5.87782 8.03168 5.60179 8.31921C5.00372 8.95178 4.44016 9.6131 4.06062 10.4009C4.00887 10.5044 3.93411 10.4929 3.8651 10.3779C3.60632 9.93513 3.52006 9.45783 3.57182 8.95753C3.69258 7.87641 4.20439 6.97357 4.82545 6.10522C4.85996 6.05347 4.90021 6.00171 4.94047 5.94996C4.90021 5.81194 4.8197 5.80044 4.69894 5.8522C4.41716 5.96721 4.20439 6.15698 4.02612 6.39851C3.89961 6.57102 3.76159 6.74354 3.61783 6.91031C3.56607 6.96782 3.49706 7.01382 3.42806 7.06558C3.32454 6.91031 3.23828 6.76654 3.13477 6.63428C2.86449 6.28349 2.61722 6.26049 2.28368 6.55377C2.05941 6.74929 1.84089 6.95632 1.61661 7.15184C1.56486 7.19209 1.4671 7.20934 1.40959 7.19209C1.36934 7.18059 1.34633 7.07133 1.34633 7.01382C1.38659 5.93271 1.69712 4.94935 2.43895 4.12701C2.99101 3.5117 3.69258 3.20117 4.49192 3.02865C5.24525 2.86188 6.01008 2.78137 6.77491 2.68361C6.82092 2.67786 6.86692 2.66636 6.90718 2.65486C6.95318 2.51109 6.89567 2.43633 6.78641 2.35583C5.98133 1.78651 5.08423 1.57949 4.10663 1.67725C4.07212 1.67725 3.99161 1.64275 3.99737 1.637C4.00887 1.57374 4.02037 1.48748 4.06062 1.45873C4.38841 1.24596 4.71619 1.03318 5.04973 0.837664C5.3085 0.688148 5.60179 0.693899 5.89507 0.699649C5.95257 0.699649 6.03883 0.688148 6.06183 0.647894C6.30336 0.262603 6.72316 0.187845 7.1142 0.067082C7.22921 0.0325784 7.35572 0.0153265 7.47649 0.00382532C7.603 -0.0134265 7.69501 0.0268278 7.77552 0.14184C7.81577 0.205097 7.92503 0.245351 8.00554 0.245351C8.24707 0.245351 8.40808 0.348862 8.56335 0.527131C8.84513 0.854916 9.14991 1.1597 9.43169 1.48748C9.56971 1.6485 9.67322 1.83252 9.78823 2.01079C9.85149 2.1143 9.89174 2.23506 9.96075 2.33282C10.0643 2.48809 10.1735 2.5686 10.3978 2.52834C10.8521 2.44784 11.3179 2.46509 11.7722 2.56285C12.537 2.72962 13.0718 3.18391 13.4341 3.85674C13.7792 4.49505 13.9632 5.19663 14.1414 5.89245C14.1702 6.00746 14.199 6.11673 14.222 6.22599C14.1357 6.3065 14.0782 6.29499 13.9862 6.22024C13.5836 5.88095 13.1523 5.58767 12.6233 5.47266C12.514 5.44966 12.399 5.47266 12.2495 5.47266C13.1408 6.69179 13.2041 8.02018 13.0086 9.38882C12.8418 9.45783 12.7498 9.37732 12.7095 9.25656C12.5715 8.87127 12.2897 8.63549 11.9332 8.47448C11.7549 8.39397 11.5709 8.31346 11.3869 8.2502C11.0189 8.13519 10.7026 7.94542 10.4783 7.62914C10.369 7.47962 10.2368 7.46812 10.07 7.50837C9.64447 7.60613 9.59846 7.64064 9.5352 8.10644C9.42019 8.96903 9.43744 9.83162 9.51795 10.6942C9.57546 11.3325 9.65597 11.9651 9.84574 12.5862C9.85724 12.6149 9.85149 12.6494 9.85149 12.6782C9.83424 13.1555 9.88599 13.6213 10.0068 14.0928C10.1563 14.6851 10.231 15.3005 10.3403 15.9043C10.346 15.9503 10.3575 15.9963 10.369 16.0423C10.6163 16.6806 10.4726 17.3419 10.5013 17.9917C10.5243 18.5208 10.4841 19.0499 10.5013 19.5847C10.5186 20.0275 10.6738 20.4358 10.9269 20.798C10.9671 20.8555 11.0649 20.8785 11.1454 20.8958C11.9332 21.0511 12.721 21.2006 13.5031 21.3501C13.5606 21.3616 13.6239 21.3731 13.6699 21.3961C13.7562 21.4421 13.8999 21.3961 13.9057 21.5629C13.9057 21.7986 13.8482 21.9424 13.6641 21.9769C13.2789 22.0517 12.8936 22.1322 12.5083 22.1379C11.5939 22.1494 10.6853 22.1092 9.74223 22.0919" fill="#E7E4DC"/>
<path d="M59.991 21.8504C59.5597 16.5713 59.7725 10.8667 59.9105 5.53589C61.2274 5.23686 62.7455 5.53589 64.1142 5.44963C64.9825 5.37487 65.0745 5.90393 65.4541 6.525C66.6674 8.31919 67.7313 10.1939 68.9044 11.9823C69.1172 12.2124 69.2035 12.6954 69.5485 12.7472C70.0201 12.5861 69.606 11.551 69.6808 11.1427C69.8245 9.29679 69.56 7.38184 69.8303 5.56464C71.1874 5.14485 72.8148 5.34037 74.2525 5.15635C74.8103 5.1391 74.54 6.06495 74.6205 6.43299C74.4825 11.4015 74.8966 16.5311 74.4768 21.4306C74.3388 21.5686 74.149 21.6319 73.9592 21.6319C72.5503 21.6204 71.0954 21.6779 69.7268 21.5916C68.3466 19.8779 67.4553 17.8365 66.1959 16.0423C65.8911 15.657 65.2873 14.0871 64.856 14.064C64.5685 14.2826 64.6777 14.7081 64.7237 15.0071C64.5915 17.1406 65.0055 19.3776 64.58 21.4593C64.4362 21.7814 63.9934 21.5916 63.7116 21.6261C62.481 21.7354 61.1986 22.0286 59.9852 21.8389" fill="#E7E4DC"/>
<path d="M86.1851 13.6215C86.3289 12.1781 85.5698 10.6945 84.0862 10.3149C83.0856 9.99289 82.0562 9.67661 82.338 11.1603C82.4875 12.0171 81.9814 16.9511 82.6082 16.9569C84.506 17.1812 86.4439 15.571 86.1794 13.6215M77.2084 21.4596C77.0934 16.3876 77.2084 11.2925 77.1682 6.20899C77.1452 5.7892 77.1279 5.43841 77.6742 5.43266C79.6582 5.42691 81.6536 5.42116 83.6434 5.43266C92.2405 5.47291 94.374 17.5722 86.8004 21.0053C85.1788 21.7529 83.4076 21.6436 81.6191 21.6724C80.1872 21.5631 78.5426 21.9197 77.2084 21.4596Z" fill="#E7E4DC"/>
<path d="M93.2464 11.5914V6.31238C93.2177 5.73157 93.3902 5.60506 93.9768 5.59356C95.2361 5.5073 96.5128 5.42679 97.7492 5.30028C98.192 5.20827 98.4277 5.59931 98.376 5.9961C98.376 8.75064 98.376 11.5339 98.3817 14.2942C98.399 15.5249 98.0654 18.1931 100.147 17.2788C100.504 17.02 100.63 16.606 100.63 16.1919C100.636 12.9313 100.63 9.68224 100.63 6.4274C100.417 5.34628 101.648 5.63381 102.338 5.49005C103.391 5.47279 104.518 5.19676 105.547 5.36353C105.932 7.8823 105.604 10.6368 105.743 13.2304C105.743 15.9504 106.116 19.1535 103.701 20.9764C101.562 22.3566 98.4795 22.3911 96.116 21.4652C92.2918 19.7343 93.419 14.9556 93.2522 11.5914" fill="#E7E4DC"/>
<path d="M44.9011 5.84668C44.7286 5.50739 49.8927 5.1681 49.8812 5.47289C50.1974 8.72198 49.8812 12.0458 50.0192 15.3179C50.0307 16.008 49.9099 17.0029 50.6402 17.3709C52.4862 17.8655 52.2159 15.8527 52.2792 14.6681C52.3252 11.9826 52.2907 9.27404 52.2907 6.58275C52.2907 6.15146 52.1469 5.69716 52.7392 5.6224C54.2114 5.55915 55.741 5.20836 57.2017 5.39813C57.4317 8.34819 57.2017 11.442 57.2764 14.4323C57.3052 16.4911 57.3972 18.728 55.9538 20.3727C53.3948 22.9547 47.5292 22.7592 45.5394 19.5274C44.7631 17.9977 44.8091 16.238 44.8379 14.5589C44.8896 11.6605 44.7516 8.72773 44.8896 5.84093" fill="#E7E4DC"/>
<path d="M36.7813 4.93802C38.2822 4.82301 39.8348 4.93227 41.3818 4.89777C41.8763 4.88626 41.6808 6.5942 41.7613 7.00824C41.4393 13.0349 43.8488 22.2531 34.7455 21.9368C31.5712 22.2014 28.4026 20.1369 28.1726 16.8475C28.0173 16.0712 28.0691 16.0079 28.8684 15.9447C30.03 15.8124 31.1917 15.6399 32.3648 15.4904C32.7501 15.3984 33.0721 15.6112 33.0319 16.0137C33.0089 17.3363 34.09 18.751 35.5104 17.9344C36.2982 17.5664 36.4937 16.6578 36.488 15.8757C36.534 12.4713 36.5857 9.06121 36.534 5.65685C36.534 5.40382 36.5685 5.08753 36.7813 4.93227" fill="#E7E4DC"/>
<path d="M228.46 11.9192C229.915 10.3723 229.95 7.73849 230.864 5.81204C230.991 5.34624 231.353 5.30023 231.784 5.31173C237.345 5.01845 235.229 5.73153 236.293 10.9301C236.58 14.3287 237.305 17.7043 237.489 21.0972C237.351 22.345 233.929 21.5572 232.917 21.7355C232.578 21.6837 232.52 21.3502 232.497 21.0627C232.285 18.7797 232.193 16.4909 231.692 14.2769C231.324 13.3166 229.806 18.9004 229.57 19.3432C229.381 19.763 228.898 22.4428 228.236 21.3329C227.483 18.9694 226.551 16.6807 225.735 14.3459C225.188 13.6789 225.183 15.2488 225.125 15.5421C224.119 21.1489 226.511 22.4486 220.605 21.7182C220.134 21.6665 219.409 21.632 219.547 20.9706C220.134 16.9855 220.617 12.8105 221.238 8.79085C221.916 4.45489 221.082 5.42099 225.436 5.31173C225.965 5.31173 226.373 5.33473 226.563 5.90404C227.339 7.84775 227.977 9.95823 228.472 11.9192" fill="#E7E4DC"/>
<path d="M246.926 9.63623C243.493 9.3027 242.625 14.438 244.666 16.4335C245.598 17.6181 246.351 17.3766 247.76 17.4916C252.573 17.3536 251.918 8.27334 246.926 9.63623ZM256.001 13.6559C256.001 15.9274 254.713 18.1299 253.35 19.8608C252.476 20.1599 251.924 20.8729 251.078 21.2467C246.386 23.4492 239.703 20.8327 238.95 15.4789C236.265 2.98277 255.834 0.941307 256.001 13.6617" fill="#E7E4DC"/>
<path d="M193.974 10.4471C192.26 9.51548 189.632 9.03243 188.287 10.7749C186.964 12.2643 187.114 15.3926 188.66 16.6922C190.173 18.1414 193.514 17.5146 191.11 15.4444C190.863 15.3351 190.639 15.3984 190.391 15.4444C189.034 15.5766 190.018 12.6783 190.529 12.178C191.795 11.7582 193.267 12.1378 194.589 12.04C195.389 12.1148 196.66 11.7122 196.792 12.8393C196.66 15.4214 197.35 18.3944 196.435 20.8097C192.766 22.7821 187.453 22.7591 184.635 19.3835C180.834 15.7491 181.731 8.39986 186.527 6.0076C189.316 4.43194 193.267 4.47219 195.935 6.34689C196.642 6.81844 196.309 7.15773 195.895 7.68103C195.193 8.53212 194.75 9.70525 193.968 10.4413" fill="#E7E4DC"/>
<path d="M134.024 14.8925C134.818 14.95 137.13 15.6688 136.629 14.1621C135.203 7.64096 135.014 10.453 134.007 14.8637L134.03 14.8925H134.024ZM139.165 7.39943C140.977 11.7181 142.179 16.3991 143.875 20.7869C144.767 22.5178 140.465 21.5977 139.539 21.8737C138.033 22.1728 138.314 20.3901 137.711 19.539C137.118 18.7799 134.214 18.9467 133.317 19.1997C132.564 19.7402 132.748 20.8099 132.247 21.5172C131.224 22.397 128.717 21.7645 127.446 21.6379C126.945 21.6207 126.738 21.3332 126.963 20.8559C128.636 16.0081 130.367 11.1316 131.983 6.27806C132.127 5.703 132.426 5.28896 133.081 5.33496C134.72 5.31771 136.371 5.30046 138.015 5.34646C138.872 5.48448 139.01 6.72086 139.171 7.39943" fill="#E7E4DC"/>
<path d="M173.767 15.0881C174.146 15.0766 174.951 15.1111 174.802 14.5188C174.215 13.2881 174.112 11.9597 173.744 10.6601C172.737 8.95218 172.691 13.4779 172.168 13.984C171.357 15.1571 173.065 15.0076 173.772 15.0823M176.544 5.68583C178.747 10.6774 180.046 16.0484 181.927 21.155C182.657 22.1096 175.981 22.2763 176.337 21.2355C176.067 18.1129 173.887 19.194 171.627 19.0905C169.994 19.079 171.242 21.8853 169.586 21.8508C168.591 21.7588 165.031 22.2648 164.905 21.1377C166.417 16.0542 168.557 11.1892 170.04 6.09412C170.155 5.57657 170.425 5.26603 170.995 5.31779C172.812 5.48456 174.865 4.921 176.538 5.68583" fill="#E7E4DC"/>
<path d="M122.091 9.28539C121.689 9.24513 121.131 8.96335 120.769 9.20488C120.533 10.2572 120.688 11.4361 120.711 12.5172C120.792 12.8508 121.16 12.799 121.424 12.7588C123.173 12.891 123.339 10.0847 122.097 9.27964M119.193 5.36922C130.062 3.80505 130.476 16.3759 121.838 16.6462C119.314 16.0941 121.873 21.632 119.952 21.6089C118.883 21.4249 115.541 22.6268 115.461 21.1546C115.461 18.1528 115.478 15.151 115.49 12.1549C115.576 9.9352 115.329 7.60046 115.576 5.42673C116.72 5.1967 118.02 5.33472 119.193 5.37497" fill="#E7E4DC"/>
<path d="M152.88 19.4123C152.507 15.7665 153.881 17.4571 156.446 17.6067C157.337 17.7964 159.039 17.6584 158.867 16.4278C158.913 16.077 158.614 15.8815 158.246 15.7492C148.855 12.8739 152.432 3.57516 161.322 5.21984C162.283 5.3291 163.749 5.27734 163.433 6.65174C163.841 11.879 162.593 8.96924 158.993 9.49829C155.595 10.6714 162.461 12.3506 162.996 13.6387C165.762 15.824 164.341 20.3785 161.138 21.4653C158.666 22.2301 155.853 22.1496 153.329 21.6263C152.547 21.2525 153.013 20.0967 152.88 19.4123Z" fill="#E7E4DC"/>
<path d="M206.649 19.3316C206.81 18.7335 206.292 17.4741 207.005 17.1923C208.035 17.2786 209.156 17.4454 210.197 17.6351C211.543 18.2792 214.027 16.5828 211.893 15.6742C209.961 14.7541 207.552 13.8972 206.672 11.804C206.108 10.0616 206.459 7.9166 208.012 6.78373C210.346 4.63875 213.739 5.01829 216.649 5.44959C217.408 5.94989 216.983 8.49166 217.08 9.37151C216.563 10.3031 212.831 8.46291 211.905 9.8258C211.083 11.4475 215.373 12.0628 216.206 13.2129C218.748 14.9208 218.455 18.8428 216.218 20.66C215.907 20.9015 215.436 20.8842 215.073 21.0395C214.74 21.1545 214.55 21.5226 214.245 21.6433C211.928 21.9596 209.455 22.1666 207.149 21.6663C206.269 21.3328 206.758 20.0676 206.655 19.3488" fill="#E7E4DC"/>
<path d="M199.254 21.6205C199.144 16.3817 199.075 11.0681 199.294 5.81781C199.328 5.53603 199.599 5.44402 199.857 5.44402C200.921 5.64529 203.998 4.55842 204.205 5.89256C204.193 11.0854 204.446 16.3817 204.142 21.5055C203.302 21.816 200.007 22.0518 199.254 21.6147" fill="#E7E4DC"/>
<path d="M145.526 21.6205C145.687 16.3414 144.91 10.424 145.836 5.49575C146.883 5.58201 150.189 4.62166 150.431 5.88104C150.644 10.9876 150.396 16.0596 150.511 21.1489C150.684 22.161 146.101 21.9425 145.526 21.6205Z" fill="#E7E4DC"/>
</svg>
