<svg width="416" height="41" viewBox="0 0 416 41" fill="none" xmlns="http://www.w3.org/2000/svg">
<path d="M0 40.3865V0H2.91733V16.572C4.23597 14.7306 5.89301 13.2699 7.8768 12.1773C9.86059 11.0971 12.0194 10.557 14.3533 10.557C17.0022 10.557 19.4061 11.2321 21.5883 12.5824C23.7704 13.9327 25.4975 15.7495 26.7811 18.045C28.0647 20.3406 28.7066 22.8693 28.7066 25.6559C28.7066 28.4424 28.0647 30.9712 26.7811 33.2667C25.4975 35.5622 23.7704 37.379 21.5883 38.7293C19.4061 40.0796 17.0022 40.7548 14.3533 40.7548C12.0194 40.7548 9.86059 40.2147 7.8768 39.1221C5.89301 38.0419 4.23597 36.5811 2.91733 34.7398V40.3865H0ZM2.91733 32.4688C4.00258 34.4697 5.53126 36.1392 7.49171 37.4772C9.45216 38.803 11.7393 39.4659 14.3533 39.4659C16.3021 39.4659 17.9708 39.0608 19.3711 38.2383C20.7714 37.4158 21.9267 36.3479 22.8486 35.0221C23.7588 33.6964 24.4356 32.211 24.8557 30.5784C25.2874 28.9457 25.4975 27.3008 25.4975 25.6682C25.4975 24.0355 25.2874 22.3906 24.8557 20.7579C24.4239 19.1253 23.7704 17.6399 22.8719 16.3142C21.9734 14.9884 20.8181 13.9082 19.4061 13.098C17.9824 12.2755 16.3021 11.8704 14.3533 11.8704C11.751 11.8704 9.46383 12.5333 7.49171 13.8591C5.53126 15.1848 4.00258 16.8789 2.91733 18.9166V32.4811V32.4688Z" fill="#948369"/>
<path d="M49.0112 10.5566C49.7931 10.5566 50.5399 10.6426 51.2634 10.8022C51.9869 10.9617 52.6754 11.2686 53.3289 11.7228L52.8037 12.9504C52.1386 12.4962 51.4501 12.2016 50.7383 12.0543C50.0148 11.9069 49.3263 11.8456 48.6611 11.8456C47.3775 11.8456 46.1872 12.1525 45.067 12.7662C43.9584 13.38 43.0015 14.1534 42.208 15.0986C41.4145 16.0438 40.796 17.0013 40.3642 17.9833C39.9325 18.8795 39.6407 19.972 39.454 21.2609C39.279 22.5498 39.1973 23.9984 39.1973 25.5942V40.3862H36.3383V10.9249H39.1973V17.4309C39.7458 16.2034 40.5043 15.074 41.4962 14.0306C42.4881 12.9872 43.6316 12.1525 44.9386 11.5141C46.2456 10.8758 47.5992 10.5689 48.9879 10.5689L49.0112 10.5566Z" fill="#948369"/>
<path d="M85.3028 10.9249V40.3862H82.3855V34.7395C81.0668 36.5808 79.4098 38.0416 77.426 39.1218C75.4422 40.2021 73.2834 40.7545 70.9495 40.7545C68.3006 40.7545 65.8967 40.0793 63.7145 38.729C61.5324 37.3787 59.8053 35.5619 58.5217 33.2664C57.2381 30.9709 56.5963 28.4421 56.5963 25.6556C56.5963 22.869 57.2381 20.3402 58.5217 18.0447C59.8053 15.7492 61.5324 13.9324 63.7145 12.5821C65.8967 11.2318 68.3006 10.5566 70.9495 10.5566C73.2834 10.5566 75.4422 11.0968 77.426 12.177C79.4098 13.2573 81.0668 14.7303 82.3855 16.5717V10.9249H85.3028ZM70.9495 39.4655C73.5518 39.4655 75.839 38.8027 77.8111 37.4769C79.7715 36.1511 81.3002 34.4817 82.3855 32.4685V18.904C81.3002 16.854 79.7715 15.1722 77.8111 13.8465C75.8507 12.5207 73.5635 11.8578 70.9495 11.8578C69.0008 11.8578 67.3204 12.2629 65.8967 13.0854C64.4731 13.9079 63.3178 14.9758 62.4309 16.3016C61.5324 17.6274 60.8789 19.1127 60.4471 20.7453C60.0154 22.378 59.8053 24.0229 59.8053 25.6556C59.8053 27.2882 60.0154 28.9331 60.4471 30.5658C60.8789 32.1984 61.544 33.6838 62.4543 35.0095C63.3645 36.3353 64.5314 37.4155 65.9317 38.2257C67.332 39.0482 69.0008 39.4533 70.9495 39.4533V39.4655Z" fill="#948369"/>
<path d="M118.619 10.9258L105.374 40.7553L92.0127 10.9258H95.2218L106.308 35.7224L117.335 10.9258H118.619Z" fill="#948369"/>
<path d="M150.884 10.9249V40.3862H147.967V34.7395C146.649 36.5808 144.991 38.0416 143.008 39.1218C141.024 40.2021 138.865 40.7545 136.531 40.7545C133.882 40.7545 131.478 40.0793 129.296 38.729C127.114 37.3787 125.387 35.5619 124.103 33.2664C122.82 30.9709 122.178 28.4421 122.178 25.6556C122.178 22.869 122.82 20.3402 124.103 18.0447C125.387 15.7492 127.114 13.9324 129.296 12.5821C131.478 11.2318 133.882 10.5566 136.531 10.5566C138.865 10.5566 141.024 11.0968 143.008 12.177C144.991 13.2573 146.649 14.7303 147.967 16.5717V10.9249H150.884ZM136.531 39.4655C139.133 39.4655 141.421 38.8027 143.393 37.4769C145.353 36.1511 146.882 34.4817 147.979 32.4685V18.904C146.894 16.854 145.365 15.1722 143.393 13.8465C141.432 12.5207 139.145 11.8578 136.531 11.8578C134.582 11.8578 132.902 12.2629 131.49 13.0854C130.066 13.9079 128.911 14.9758 128.013 16.3016C127.114 17.6274 126.461 19.1127 126.029 20.7453C125.597 22.378 125.387 24.0229 125.387 25.6556C125.387 27.2882 125.597 28.9331 126.029 30.5658C126.461 32.1984 127.126 33.6838 128.048 35.0095C128.958 36.3353 130.113 37.4155 131.513 38.2257C132.914 39.0482 134.582 39.4533 136.531 39.4533V39.4655Z" fill="#948369"/>
<path d="M195.636 36.3357C197.235 35.4396 198.554 34.212 199.604 32.653L201.821 34.6171C201.471 35.145 201.004 35.7219 200.421 36.3357C199.055 37.7719 197.503 38.8645 195.753 39.6133C194.003 40.3743 192.171 40.7426 190.268 40.7426C188.366 40.7426 186.534 40.3621 184.784 39.6133C183.033 38.8522 181.481 37.7597 180.116 36.3357C178.751 34.8626 177.712 33.2177 176.989 31.3886C176.265 29.5719 175.915 27.6569 175.915 25.656C175.915 23.6551 176.277 21.7278 176.989 19.8865C177.701 18.0451 178.751 16.4125 180.116 14.9763C181.481 13.54 183.033 12.4475 184.784 11.6987C186.534 10.9376 188.366 10.5693 190.268 10.5693C192.171 10.5693 194.003 10.9499 195.753 11.6987C197.503 12.4598 199.055 13.5523 200.421 14.9763C201.004 15.59 201.471 16.167 201.821 16.6948L199.604 18.6589C198.554 17.0999 197.235 15.8724 195.636 14.9763C194.038 14.0801 192.252 13.6259 190.268 13.6259C187.269 13.6259 185.286 14.7921 184.294 17.1245C183.302 19.4568 182.812 22.3048 182.812 25.656C182.812 29.0072 183.302 31.8551 184.294 34.1875C185.286 36.5198 187.281 37.686 190.268 37.686C192.252 37.686 194.038 37.2318 195.636 36.3357Z" fill="#948369"/>
<path d="M235.16 19.8496C235.884 21.6664 236.234 23.606 236.234 25.656C236.234 27.706 235.872 29.6332 235.16 31.45C234.437 33.2668 233.398 34.8995 232.045 36.3357C230.679 37.7719 229.127 38.8645 227.377 39.6133C225.627 40.3743 223.794 40.7426 221.892 40.7426C219.99 40.7426 218.17 40.3621 216.443 39.6133C214.716 38.8522 213.164 37.7597 211.81 36.3357C210.445 34.8995 209.394 33.2668 208.659 31.4255C207.924 29.5841 207.551 27.6569 207.551 25.656C207.551 23.6551 207.924 21.7278 208.659 19.8865C209.394 18.0451 210.445 16.4125 211.81 14.9763C213.175 13.54 214.716 12.4475 216.443 11.6987C218.17 10.9376 219.99 10.5693 221.892 10.5693C223.794 10.5693 225.627 10.9499 227.377 11.6987C229.127 12.4598 230.679 13.5523 232.045 14.9763C233.41 16.4125 234.449 18.0329 235.16 19.8496ZM229.419 25.656C229.419 17.64 226.91 13.6259 221.892 13.6259C216.875 13.6259 214.424 17.64 214.424 25.656C214.424 33.6719 216.91 37.686 221.892 37.686C226.875 37.686 229.419 33.6719 229.419 25.656Z" fill="#948369"/>
<path d="M268.686 17.922C269.153 19.5178 269.387 21.445 269.387 23.6915V40.3862H262.793V22.5253C262.793 19.1741 262.28 16.854 261.241 15.5896C260.214 14.3252 258.954 13.6869 257.484 13.6869C256.2 13.6869 254.905 14.3007 253.598 15.5282C252.291 16.7558 251.427 18.3271 251.007 20.2543C250.657 21.7642 250.482 23.7528 250.482 26.208V40.3862H243.889V10.9249H250.482V15.2213C251.299 13.9079 252.431 12.8031 253.89 11.9069C255.348 11.0108 256.994 10.5566 258.814 10.5566C260.366 10.5566 261.79 10.7899 263.073 11.2563C264.357 11.7228 265.501 12.5821 266.516 13.8097C267.484 14.9513 268.208 16.3261 268.675 17.922H268.686Z" fill="#948369"/>
<path d="M296.634 36.3357C298.233 35.4396 299.552 34.212 300.602 32.653L302.819 34.6171C302.469 35.145 302.002 35.7219 301.419 36.3357C300.054 37.7719 298.502 38.8645 296.751 39.6133C295.001 40.3743 293.169 40.7426 291.267 40.7426C289.364 40.7426 287.532 40.3621 285.782 39.6133C284.032 38.8522 282.48 37.7597 281.114 36.3357C279.749 34.8626 278.71 33.2177 277.999 31.3886C277.275 29.5719 276.925 27.6569 276.925 25.656C276.925 23.6551 277.287 21.7278 277.999 19.8865C278.722 18.0451 279.761 16.4125 281.114 14.9763C282.48 13.54 284.032 12.4475 285.782 11.6987C287.532 10.9376 289.364 10.5693 291.267 10.5693C293.169 10.5693 295.001 10.9499 296.751 11.6987C298.502 12.4598 300.054 13.5523 301.419 14.9763C302.002 15.59 302.469 16.167 302.819 16.6948L300.602 18.6589C299.552 17.0999 298.233 15.8724 296.634 14.9763C295.036 14.0801 293.25 13.6259 291.267 13.6259C288.268 13.6259 286.284 14.7921 285.292 17.1245C284.3 19.4568 283.81 22.3048 283.81 25.656C283.81 29.0072 284.3 31.8551 285.292 34.1875C286.284 36.5198 288.279 37.686 291.267 37.686C293.25 37.686 295.036 37.2318 296.634 36.3357Z" fill="#948369"/>
<path d="M336.357 27.2518H315.469C315.737 34.212 318.211 37.686 322.879 37.686C324.828 37.686 326.578 37.2564 328.13 36.3971C329.682 35.5378 330.966 34.3962 331.981 32.9599L332.214 32.653L334.431 34.6171C334.081 35.145 333.615 35.7219 333.031 36.3357C331.666 37.7719 330.114 38.8645 328.363 39.6133C326.613 40.3743 324.781 40.7426 322.879 40.7426C320.977 40.7426 319.156 40.3621 317.429 39.6133C315.702 38.8522 314.127 37.7597 312.726 36.3357C311.361 34.8626 310.323 33.2177 309.611 31.3886C308.887 29.5719 308.537 27.6569 308.537 25.656C308.537 23.6551 308.899 21.7278 309.611 19.8865C310.334 18.0451 311.373 16.4125 312.726 14.9763C314.127 13.54 315.69 12.4475 317.429 11.6987C319.156 10.9376 320.977 10.5693 322.879 10.5693C325.364 10.5693 327.64 11.2568 329.705 12.6194C331.771 13.9942 333.393 15.8355 334.571 18.1433C335.762 20.4511 336.345 22.9554 336.345 25.656V27.2518H336.357ZM315.469 24.1829H329.472C329.472 21.0772 329.052 18.5362 328.212 16.5721C327.371 14.608 325.598 13.6259 322.867 13.6259C318.118 13.6259 315.655 17.149 315.457 24.1829H315.469Z" fill="#948369"/>
<path d="M360.046 40.0796C359.777 40.2392 359.24 40.3988 358.435 40.5461C357.642 40.6934 356.883 40.7548 356.195 40.7548C355.063 40.7548 353.721 40.5216 352.145 40.0428C350.57 39.5763 349.31 38.803 348.376 37.735C347.559 36.8389 346.964 35.7095 346.602 34.3592C346.229 33.0089 346.042 31.3763 346.042 29.449V13.7363H340.149V10.6674H346.042V0H352.635V10.6797H358.12V13.7486H352.635V29.9523C352.635 32.1251 352.904 33.9419 353.452 35.4149C354.001 36.888 355.144 37.6245 356.895 37.6245C357.63 37.6245 358.435 37.4772 359.287 37.1949L360.046 40.0796Z" fill="#948369"/>
<path d="M383.443 40.0796C383.174 40.2392 382.637 40.3988 381.832 40.5461C381.039 40.6934 380.28 40.7548 379.592 40.7548C378.46 40.7548 377.118 40.5216 375.542 40.0428C373.967 39.5763 372.707 38.803 371.773 37.735C370.956 36.8389 370.361 35.7095 370 34.3592C369.626 33.0089 369.439 31.3763 369.439 29.449V13.7363H363.546V10.6674H369.439V0H376.033V10.6797H381.517V13.7486H376.033V29.9523C376.033 32.1251 376.301 33.9419 376.849 35.4149C377.398 36.888 378.541 37.6245 380.292 37.6245C381.027 37.6245 381.832 37.4772 382.684 37.1949L383.443 40.0796Z" fill="#948369"/>
<path d="M414.926 19.8496C415.65 21.6664 416 23.606 416 25.656C416 27.706 415.638 29.6332 414.926 31.45C414.203 33.2668 413.164 34.8995 411.811 36.3357C410.445 37.7719 408.893 38.8645 407.143 39.6133C405.393 40.3743 403.56 40.7426 401.658 40.7426C399.756 40.7426 397.936 40.3621 396.209 39.6133C394.482 38.8522 392.93 37.7597 391.576 36.3357C390.211 34.8995 389.161 33.2668 388.425 31.4255C387.69 29.5841 387.317 27.6569 387.317 25.656C387.317 23.6551 387.69 21.7278 388.425 19.8865C389.161 18.0451 390.211 16.4125 391.576 14.9763C392.941 13.54 394.482 12.4475 396.209 11.6987C397.936 10.9376 399.756 10.5693 401.658 10.5693C403.56 10.5693 405.393 10.9499 407.143 11.6987C408.893 12.4598 410.445 13.5523 411.811 14.9763C413.176 16.4125 414.215 18.0329 414.926 19.8496ZM409.173 25.656C409.173 17.64 406.665 13.6259 401.647 13.6259C396.629 13.6259 394.178 17.64 394.178 25.656C394.178 33.6719 396.664 37.686 401.647 37.686C406.63 37.686 409.173 33.6719 409.173 25.656Z" fill="#948369"/>
</svg>
