<svg width="416" height="41" viewBox="0 0 416 41" fill="none" xmlns="http://www.w3.org/2000/svg">
<path d="M0 40.3865V0H2.91733V16.572C4.23597 14.7306 5.89301 13.2699 7.8768 12.1773C9.86059 11.0971 12.0194 10.557 14.3533 10.557C17.0022 10.557 19.4061 11.2321 21.5883 12.5824C23.7704 13.9327 25.4975 15.7495 26.7811 18.045C28.0647 20.3406 28.7066 22.8693 28.7066 25.6559C28.7066 28.4424 28.0647 30.9712 26.7811 33.2667C25.4975 35.5622 23.7704 37.379 21.5883 38.7293C19.4061 40.0796 17.0022 40.7548 14.3533 40.7548C12.0194 40.7548 9.86059 40.2147 7.8768 39.1221C5.89301 38.0419 4.23597 36.5811 2.91733 34.7398V40.3865H0ZM2.91733 32.4688C4.00258 34.4697 5.53126 36.1392 7.49171 37.4772C9.45216 38.803 11.7393 39.4659 14.3533 39.4659C16.3021 39.4659 17.9708 39.0608 19.3711 38.2383C20.7714 37.4158 21.9267 36.3479 22.8486 35.0221C23.7588 33.6964 24.4356 32.211 24.8557 30.5784C25.2874 28.9457 25.4975 27.3008 25.4975 25.6682C25.4975 24.0355 25.2874 22.3906 24.8557 20.7579C24.4239 19.1253 23.7704 17.6399 22.8719 16.3142C21.9734 14.9884 20.8181 13.9082 19.4061 13.098C17.9824 12.2755 16.3021 11.8704 14.3533 11.8704C11.751 11.8704 9.46383 12.5333 7.49171 13.8591C5.53126 15.1848 4.00258 16.8789 2.91733 18.9166V32.4811V32.4688Z" fill="#E3DED1"/>
<path d="M49.0112 10.557C49.793 10.557 50.5399 10.6429 51.2634 10.8025C51.9869 10.9621 52.6754 11.2689 53.3288 11.7231L52.8037 12.9507C52.1386 12.4965 51.4501 12.2019 50.7382 12.0546C50.0147 11.9073 49.3263 11.8459 48.6611 11.8459C47.3775 11.8459 46.1872 12.1528 45.0669 12.7666C43.9584 13.3803 43.0015 14.1537 42.208 15.0989C41.4144 16.0441 40.796 17.0016 40.3642 17.9837C39.9324 18.8798 39.6407 19.9723 39.454 21.2612C39.279 22.5502 39.1973 23.9987 39.1973 25.5945V40.3865H36.3383V10.9252H39.1973V17.4313C39.7457 16.2037 40.5042 15.0744 41.4961 14.0309C42.488 12.9875 43.6316 12.1528 44.9386 11.5145C46.2455 10.8761 47.5992 10.5692 48.9878 10.5692L49.0112 10.557Z" fill="#E3DED1"/>
<path d="M85.3028 10.9252V40.3865H82.3855V34.7398C81.0668 36.5811 79.4098 38.0419 77.426 39.1221C75.4422 40.2024 73.2834 40.7548 70.9495 40.7548C68.3006 40.7548 65.8967 40.0796 63.7145 38.7293C61.5324 37.379 59.8053 35.5622 58.5217 33.2667C57.2381 30.9712 56.5963 28.4424 56.5963 25.6559C56.5963 22.8693 57.2381 20.3406 58.5217 18.045C59.8053 15.7495 61.5324 13.9327 63.7145 12.5824C65.8967 11.2321 68.3006 10.557 70.9495 10.557C73.2834 10.557 75.4422 11.0971 77.426 12.1773C79.4098 13.2576 81.0668 14.7306 82.3855 16.572V10.9252H85.3028ZM70.9495 39.4659C73.5518 39.4659 75.839 38.803 77.8111 37.4772C79.7715 36.1515 81.3002 34.482 82.3855 32.4688V18.9043C81.3002 16.8543 79.7715 15.1726 77.8111 13.8468C75.8507 12.521 73.5635 11.8582 70.9495 11.8582C69.0008 11.8582 67.3204 12.2633 65.8967 13.0857C64.4731 13.9082 63.3178 14.9762 62.4309 16.3019C61.5324 17.6277 60.8789 19.113 60.4471 20.7457C60.0154 22.3783 59.8053 24.0232 59.8053 25.6559C59.8053 27.2885 60.0154 28.9334 60.4471 30.5661C60.8789 32.1987 61.544 33.6841 62.4543 35.0098C63.3645 36.3356 64.5314 37.4158 65.9317 38.226C67.332 39.0485 69.0008 39.4536 70.9495 39.4536V39.4659Z" fill="#E3DED1"/>
<path d="M118.619 10.9252L105.374 40.7548L92.0127 10.9252H95.2217L106.308 35.7218L117.335 10.9252H118.619Z" fill="#E3DED1"/>
<path d="M150.884 10.9252V40.3865H147.967V34.7398C146.648 36.5811 144.991 38.0419 143.008 39.1221C141.024 40.2024 138.865 40.7548 136.531 40.7548C133.882 40.7548 131.478 40.0796 129.296 38.7293C127.114 37.379 125.387 35.5622 124.103 33.2667C122.82 30.9712 122.178 28.4424 122.178 25.6559C122.178 22.8693 122.82 20.3406 124.103 18.045C125.387 15.7495 127.114 13.9327 129.296 12.5824C131.478 11.2321 133.882 10.557 136.531 10.557C138.865 10.557 141.024 11.0971 143.008 12.1773C144.991 13.2576 146.648 14.7306 147.967 16.572V10.9252H150.884ZM136.531 39.4659C139.133 39.4659 141.421 38.803 143.393 37.4772C145.353 36.1515 146.882 34.482 147.979 32.4688V18.9043C146.894 16.8543 145.365 15.1726 143.393 13.8468C141.432 12.521 139.145 11.8582 136.531 11.8582C134.582 11.8582 132.902 12.2633 131.49 13.0857C130.066 13.9082 128.911 14.9762 128.013 16.3019C127.114 17.6277 126.461 19.113 126.029 20.7457C125.597 22.3783 125.387 24.0232 125.387 25.6559C125.387 27.2885 125.597 28.9334 126.029 30.5661C126.461 32.1987 127.126 33.6841 128.048 35.0098C128.958 36.3356 130.113 37.4158 131.513 38.226C132.914 39.0485 134.582 39.4536 136.531 39.4536V39.4659Z" fill="#E3DED1"/>
<path d="M195.636 36.3356C197.235 35.4395 198.554 34.2119 199.604 32.6529L201.821 34.617C201.471 35.1449 201.004 35.7218 200.421 36.3356C199.055 37.7718 197.503 38.8644 195.753 39.6132C194.003 40.3742 192.171 40.7425 190.268 40.7425C188.366 40.7425 186.534 40.362 184.784 39.6132C183.033 38.8521 181.481 37.7596 180.116 36.3356C178.751 34.8625 177.712 33.2176 176.989 31.3885C176.265 29.5718 175.915 27.6568 175.915 25.6559C175.915 23.655 176.277 21.7277 176.989 19.8864C177.701 18.045 178.751 16.4124 180.116 14.9762C181.481 13.5399 183.033 12.4474 184.784 11.6986C186.534 10.9375 188.366 10.5692 190.268 10.5692C192.171 10.5692 194.003 10.9498 195.753 11.6986C197.503 12.4597 199.055 13.5522 200.421 14.9762C201.004 15.5899 201.471 16.1669 201.821 16.6947L199.604 18.6588C198.554 17.0998 197.235 15.8723 195.636 14.9762C194.038 14.08 192.252 13.6258 190.268 13.6258C187.269 13.6258 185.286 14.792 184.294 17.1244C183.302 19.4567 182.812 22.3047 182.812 25.6559C182.812 29.0071 183.302 31.855 184.294 34.1874C185.286 36.5197 187.281 37.6859 190.268 37.6859C192.252 37.6859 194.038 37.2317 195.636 36.3356Z" fill="#E3DED1"/>
<path d="M235.16 19.8495C235.884 21.6663 236.234 23.6059 236.234 25.6559C236.234 27.7059 235.872 29.6332 235.16 31.4499C234.437 33.2667 233.398 34.8994 232.045 36.3356C230.679 37.7718 229.127 38.8644 227.377 39.6132C225.627 40.3742 223.794 40.7425 221.892 40.7425C219.99 40.7425 218.17 40.362 216.443 39.6132C214.716 38.8521 213.164 37.7596 211.81 36.3356C210.445 34.8994 209.394 33.2667 208.659 31.4254C207.924 29.584 207.551 27.6568 207.551 25.6559C207.551 23.655 207.924 21.7277 208.659 19.8864C209.394 18.045 210.445 16.4124 211.81 14.9762C213.175 13.5399 214.716 12.4474 216.443 11.6986C218.17 10.9375 219.99 10.5692 221.892 10.5692C223.794 10.5692 225.627 10.9498 227.377 11.6986C229.127 12.4597 230.679 13.5522 232.045 14.9762C233.41 16.4124 234.449 18.0328 235.16 19.8495ZM229.419 25.6559C229.419 17.6399 226.91 13.6258 221.892 13.6258C216.875 13.6258 214.424 17.6399 214.424 25.6559C214.424 33.6718 216.91 37.6859 221.892 37.6859C226.875 37.6859 229.419 33.6718 229.419 25.6559Z" fill="#E3DED1"/>
<path d="M268.686 17.9223C269.153 19.5181 269.387 21.4454 269.387 23.6918V40.3865H262.793V22.5256C262.793 19.1744 262.28 16.8543 261.241 15.5899C260.214 14.3256 258.954 13.6872 257.484 13.6872C256.2 13.6872 254.905 14.301 253.598 15.5286C252.291 16.7561 251.427 18.3274 251.007 20.2546C250.657 21.7645 250.482 23.7532 250.482 26.2083V40.3865H243.889V10.9252H250.482V15.2217C251.299 13.9082 252.431 12.8034 253.89 11.9073C255.348 11.0112 256.994 10.557 258.814 10.557C260.366 10.557 261.79 10.7902 263.073 11.2567C264.357 11.7231 265.501 12.5824 266.516 13.81C267.484 14.9516 268.208 16.3265 268.675 17.9223H268.686Z" fill="#E3DED1"/>
<path d="M296.634 36.3356C298.233 35.4395 299.552 34.2119 300.602 32.6529L302.819 34.617C302.469 35.1449 302.002 35.7218 301.419 36.3356C300.054 37.7718 298.502 38.8644 296.751 39.6132C295.001 40.3742 293.169 40.7425 291.267 40.7425C289.364 40.7425 287.532 40.362 285.782 39.6132C284.032 38.8521 282.48 37.7596 281.114 36.3356C279.749 34.8625 278.71 33.2176 277.999 31.3885C277.275 29.5718 276.925 27.6568 276.925 25.6559C276.925 23.655 277.287 21.7277 277.999 19.8864C278.722 18.045 279.761 16.4124 281.114 14.9762C282.48 13.5399 284.032 12.4474 285.782 11.6986C287.532 10.9375 289.364 10.5692 291.267 10.5692C293.169 10.5692 295.001 10.9498 296.751 11.6986C298.502 12.4597 300.054 13.5522 301.419 14.9762C302.002 15.5899 302.469 16.1669 302.819 16.6947L300.602 18.6588C299.552 17.0998 298.233 15.8723 296.634 14.9762C295.036 14.08 293.25 13.6258 291.267 13.6258C288.268 13.6258 286.284 14.792 285.292 17.1244C284.3 19.4567 283.81 22.3047 283.81 25.6559C283.81 29.0071 284.3 31.855 285.292 34.1874C286.284 36.5197 288.279 37.6859 291.267 37.6859C293.25 37.6859 295.036 37.2317 296.634 36.3356Z" fill="#E3DED1"/>
<path d="M336.357 27.2517H315.469C315.737 34.2119 318.211 37.6859 322.879 37.6859C324.828 37.6859 326.578 37.2563 328.13 36.397C329.682 35.5377 330.966 34.3961 331.981 32.9598L332.214 32.6529L334.431 34.617C334.081 35.1449 333.615 35.7218 333.031 36.3356C331.666 37.7718 330.114 38.8644 328.363 39.6132C326.613 40.3742 324.781 40.7425 322.879 40.7425C320.977 40.7425 319.156 40.362 317.429 39.6132C315.702 38.8521 314.127 37.7596 312.726 36.3356C311.361 34.8625 310.323 33.2176 309.611 31.3885C308.887 29.5718 308.537 27.6568 308.537 25.6559C308.537 23.655 308.899 21.7277 309.611 19.8864C310.334 18.045 311.373 16.4124 312.726 14.9762C314.127 13.5399 315.69 12.4474 317.429 11.6986C319.156 10.9375 320.977 10.5692 322.879 10.5692C325.364 10.5692 327.64 11.2567 329.705 12.6193C331.771 13.9941 333.393 15.8354 334.571 18.1432C335.762 20.451 336.345 22.9553 336.345 25.6559V27.2517H336.357ZM315.469 24.1828H329.472C329.472 21.0771 329.052 18.5361 328.212 16.572C327.371 14.6079 325.598 13.6258 322.867 13.6258C318.118 13.6258 315.655 17.1489 315.457 24.1828H315.469Z" fill="#E3DED1"/>
<path d="M360.046 40.0796C359.777 40.2392 359.24 40.3988 358.435 40.5461C357.642 40.6934 356.883 40.7548 356.195 40.7548C355.063 40.7548 353.721 40.5216 352.145 40.0428C350.57 39.5763 349.31 38.803 348.376 37.735C347.559 36.8389 346.964 35.7095 346.602 34.3592C346.229 33.0089 346.042 31.3763 346.042 29.449V13.7363H340.149V10.6674H346.042V0H352.635V10.6797H358.12V13.7486H352.635V29.9523C352.635 32.1251 352.904 33.9419 353.452 35.4149C354.001 36.888 355.144 37.6245 356.895 37.6245C357.63 37.6245 358.435 37.4772 359.287 37.1949L360.046 40.0796Z" fill="#E3DED1"/>
<path d="M383.443 40.0796C383.174 40.2392 382.637 40.3988 381.832 40.5461C381.039 40.6934 380.28 40.7548 379.592 40.7548C378.46 40.7548 377.118 40.5216 375.542 40.0428C373.967 39.5763 372.707 38.803 371.773 37.735C370.956 36.8389 370.361 35.7095 370 34.3592C369.626 33.0089 369.439 31.3763 369.439 29.449V13.7363H363.546V10.6674H369.439V0H376.033V10.6797H381.517V13.7486H376.033V29.9523C376.033 32.1251 376.301 33.9419 376.849 35.4149C377.398 36.888 378.541 37.6245 380.292 37.6245C381.027 37.6245 381.832 37.4772 382.684 37.1949L383.443 40.0796Z" fill="#E3DED1"/>
<path d="M414.926 19.8495C415.65 21.6663 416 23.6059 416 25.6559C416 27.7059 415.638 29.6332 414.926 31.4499C414.203 33.2667 413.164 34.8994 411.811 36.3356C410.445 37.7718 408.893 38.8644 407.143 39.6132C405.393 40.3742 403.56 40.7425 401.658 40.7425C399.756 40.7425 397.936 40.362 396.209 39.6132C394.482 38.8521 392.93 37.7596 391.576 36.3356C390.211 34.8994 389.161 33.2667 388.425 31.4254C387.69 29.584 387.317 27.6568 387.317 25.6559C387.317 23.655 387.69 21.7277 388.425 19.8864C389.161 18.045 390.211 16.4124 391.576 14.9762C392.941 13.5399 394.482 12.4474 396.209 11.6986C397.936 10.9375 399.756 10.5692 401.658 10.5692C403.56 10.5692 405.393 10.9498 407.143 11.6986C408.893 12.4597 410.445 13.5522 411.811 14.9762C413.176 16.4124 414.215 18.0328 414.926 19.8495ZM409.173 25.6559C409.173 17.6399 406.665 13.6258 401.647 13.6258C396.629 13.6258 394.178 17.6399 394.178 25.6559C394.178 33.6718 396.664 37.6859 401.647 37.6859C406.63 37.6859 409.173 33.6718 409.173 25.6559Z" fill="#E3DED1"/>
</svg>
