<svg width="296" height="18" viewBox="0 0 296 18" fill="none" xmlns="http://www.w3.org/2000/svg">
<path d="M9.61738 8.68802C9.12436 8.49812 8.46468 8.34212 7.63141 8.22683L5.64544 7.92841C5.17325 7.84702 4.71495 7.71816 4.27053 7.54182C3.83306 7.36549 3.40254 7.10776 2.99979 6.76865C2.5901 6.42954 2.38872 5.81236 2.38872 4.91711C2.38872 3.90656 2.72203 3.10625 3.39559 2.5162C4.06916 1.92615 4.99965 1.63451 6.2079 1.63451C7.1245 1.63451 7.91611 1.76338 8.58967 2.0211C9.25629 2.27882 9.87431 2.65863 10.4368 3.15373L11.6867 1.93293C10.8881 1.23436 10.0757 0.739261 9.25629 0.440844C8.42996 0.149209 7.43698 0 6.28428 0C4.50663 0 3.09006 0.454408 2.04847 1.37001C1.00687 2.27882 0.486077 3.49284 0.486077 4.99849C0.486077 6.40919 0.909658 7.474 1.75682 8.20648C2.60398 8.93896 3.74974 9.41371 5.19408 9.65109L7.30504 9.97664C7.95083 10.0784 8.43691 10.1869 8.77022 10.3022C9.10353 10.4175 9.4785 10.6616 9.90208 11.0211C10.3257 11.3873 10.5409 12.0588 10.5409 13.0354C10.5409 14.0595 10.159 14.8666 9.39517 15.4431C8.63134 16.0264 7.58974 16.3112 6.26345 16.3112C5.21491 16.3112 4.30525 16.1688 3.55531 15.8772C2.79841 15.5855 2.05541 15.0836 1.3263 14.3715L0 15.6669C0.881882 16.5283 1.79154 17.1319 2.72203 17.4846C3.65252 17.8304 4.81911 18.0068 6.2079 18.0068C8.12443 18.0068 9.64516 17.5592 10.777 16.6503C11.9019 15.7483 12.4713 14.5275 12.4713 12.9812C12.4713 11.4348 12.1172 10.4514 11.4159 9.86134C10.7145 9.27129 10.1104 8.8847 9.62432 8.6948" fill="#E7E4DC"/>
<path d="M15.9297 0.14917V1.84472H21.1724V17.8779H23.1097V1.84472H28.3524V0.14917H15.9297Z" fill="#E7E4DC"/>
<path d="M43.4692 11.8621C43.4692 13.205 43.0595 14.2833 42.247 15.0904C41.4346 15.8975 40.3722 16.3112 39.0667 16.3112C37.7612 16.3112 36.6849 15.9043 35.8864 15.0904C35.0878 14.2766 34.692 13.1982 34.692 11.8621V0.149209H32.7616V12.0045C32.7616 13.7611 33.3518 15.1989 34.5323 16.318C35.7128 17.4371 37.2266 17.9932 39.0736 17.9932C40.9207 17.9932 42.4415 17.4371 43.6289 16.3248C44.8163 15.2125 45.4135 13.7747 45.4135 11.9977V0.149209H43.4761V11.8553L43.4692 11.8621Z" fill="#E7E4DC"/>
<path d="M62.3012 8.8101C62.3012 10.4175 62.2387 11.6925 62.1067 12.6353C61.9818 13.5712 61.6623 14.3037 61.1485 14.8259C60.6416 15.3482 60.0999 15.7076 59.5305 15.8975C58.9611 16.0874 58.2945 16.1824 57.5307 16.1824H53.5865V1.83798H57.5307C58.2598 1.83798 58.9264 1.93971 59.5305 2.14996C60.1347 2.36021 60.6555 2.68576 61.0929 3.13338C61.5165 3.56745 61.822 4.09646 62.0095 4.7272C62.197 5.35795 62.2873 6.4431 62.2873 7.98945V8.8101H62.3012ZM62.2387 1.58026C61.2665 0.623964 59.8083 0.149209 57.8709 0.149209H51.663V17.8711H57.8709C59.8083 17.8711 61.336 17.3218 62.4539 16.2298C63.2178 15.4838 63.7039 14.5953 63.9191 13.5644C64.1344 12.5335 64.2385 11.2653 64.2385 9.75283V8.80332C64.2385 6.9789 64.1483 5.55463 63.9677 4.5373C63.7872 3.51319 63.2108 2.52977 62.2387 1.57347" fill="#E7E4DC"/>
<path d="M72.0019 0.149209H70.0645V17.8711H72.0019V0.149209Z" fill="#E7E4DC"/>
<path d="M88.348 13.0625C88.2021 13.8154 87.7855 14.5479 87.0842 15.2532C86.3898 15.9586 85.4107 16.3112 84.1607 16.3112C82.9108 16.3112 81.9317 15.9653 81.2304 15.2668C80.536 14.5682 80.1124 13.8357 79.9735 13.0693C79.8277 12.2962 79.7583 10.9465 79.7583 9.00678C79.7583 7.06707 79.8277 5.69706 79.9735 4.94423C80.1194 4.19141 80.536 3.45893 81.2304 2.75358C81.9248 2.04823 82.9039 1.69555 84.1607 1.69555C85.4176 1.69555 86.4592 2.11605 87.2925 2.96383C87.8549 3.51319 88.2021 4.17106 88.348 4.93745C88.4938 5.71063 88.5632 7.06029 88.5632 9C88.5632 10.9397 88.4938 12.3097 88.348 13.0625ZM88.4382 1.49209C87.4244 0.501884 85.994 0 84.1677 0C82.3414 0 80.8693 0.535795 79.7791 1.6006C78.682 2.67219 78.0848 3.73022 77.9876 4.78146C77.8834 5.83271 77.8348 7.23662 77.8348 8.99322C77.8348 11.1161 77.9251 12.6488 78.1056 13.5916C78.2862 14.5343 78.8833 15.5041 79.8972 16.5011C80.9179 17.4981 82.3414 17.9932 84.1746 17.9932C86.0078 17.9932 87.5494 17.3828 88.8063 16.1552C89.7367 15.2464 90.2575 14.263 90.3617 13.2118C90.4659 12.1605 90.5145 10.7566 90.5145 9C90.5145 6.87717 90.4242 5.34439 90.2506 4.40166C90.0701 3.45893 89.4729 2.48907 88.4591 1.49209" fill="#E7E4DC"/>
<path d="M108.666 5.37148L110.882 11.8078H106.375L108.666 5.37148ZM107.194 0.14917L100.604 17.8508H104.292L105.389 14.7174H111.826L112.895 17.8508H116.583L109.965 0.14917H107.187H107.194Z" fill="#E7E4DC"/>
<path d="M126.97 7.90806H123.637V3.23512H126.97C128.526 3.23512 129.54 4.20497 129.54 5.57498C129.54 6.94499 128.519 7.90806 126.97 7.90806ZM133.074 5.5682C133.074 2.61115 130.887 0.149209 127.192 0.149209H120.089V17.8508H123.63V10.7905H126.179L129.713 17.8508H133.81L129.762 10.2208C131.519 9.59683 133.067 8.05727 133.067 5.57498" fill="#E7E4DC"/>
<path d="M136.282 0.149209V3.23512H141.018V17.8508H144.552V3.23512H149.288V0.149209H136.282Z" fill="#E7E4DC"/>
<path d="M163.107 0.149209V7.38583H156.975V0.149209H153.434V17.8508H156.975V10.4446H163.107V17.8508H166.648V0.149209H163.107Z" fill="#E7E4DC"/>
<path d="M181.689 11.6586C181.689 13.7 180.439 14.9141 178.53 14.9141C176.62 14.9141 175.398 13.6933 175.398 11.6586V0.14917H171.856V11.7807C171.856 15.538 174.808 17.9932 178.523 17.9932C182.238 17.9932 185.189 15.5312 185.189 11.7807V0.14917H181.675V11.6586H181.689Z" fill="#E7E4DC"/>
<path d="M197.285 7.90806H193.952V3.23512H197.285C198.84 3.23512 199.854 4.20497 199.854 5.57498C199.854 6.94499 198.833 7.90806 197.285 7.90806ZM203.395 5.5682C203.395 2.61115 201.208 0.149209 197.514 0.149209H190.41V17.8508H193.952V10.7905H196.5L200.041 17.8508H204.138L200.09 10.2208C201.847 9.59683 203.402 8.05727 203.402 5.57498" fill="#E7E4DC"/>
<path d="M222.241 3.08591C223.998 3.08591 224.914 4.1575 225.268 5.59533H228.886C228.227 1.89224 225.63 0 222.241 0C220.151 0 218.63 0.671439 217.38 1.86511C215.575 3.62849 215.547 5.61567 215.547 9C215.547 12.3843 215.575 14.3715 217.38 16.1349C218.63 17.3286 220.158 18 222.241 18C225.602 18 228.22 16.1145 228.886 12.4047H225.296C224.942 13.8493 223.998 14.9141 222.241 14.9141C221.276 14.9141 220.484 14.5682 219.977 13.9917C219.317 13.2457 219.088 12.3775 219.088 8.99322C219.088 5.60889 219.317 4.74077 219.977 3.99472C220.484 3.42502 221.276 3.07234 222.241 3.07234" fill="#E7E4DC"/>
<path d="M239.039 5.37151L241.254 11.8078H236.747L239.039 5.37151ZM237.56 0.149209L230.97 17.8508H234.657L235.754 14.7174H242.191L243.261 17.8508H246.948L240.337 0.149209H237.56Z" fill="#E7E4DC"/>
<path d="M257.315 7.50791L255.149 7.18237C254.385 7.08063 253.85 6.83647 253.496 6.51093C253.114 6.16503 252.989 5.71741 252.989 5.24265C252.989 4.02185 253.878 3.00452 255.76 3.00452C256.954 3.00452 258.357 3.15373 259.475 4.22532L261.718 2.06179C260.162 0.596835 258.357 0 255.864 0C251.941 0 249.552 2.211 249.552 5.37151C249.552 6.8636 249.982 8.03014 250.85 8.85079C251.663 9.62396 252.76 10.0919 254.364 10.3157L256.531 10.6413C257.447 10.7634 257.801 10.9126 258.162 11.2381C258.544 11.6112 258.725 12.1063 258.725 12.7031C258.725 14.1206 257.607 14.9141 255.496 14.9141C253.843 14.9141 252.288 14.5411 251.142 13.422L248.851 15.6601C250.635 17.4235 252.718 18 255.468 18C259.287 18 262.19 16.0603 262.19 12.6285C262.19 11.0347 261.759 9.76639 260.787 8.89827C259.996 8.15222 258.982 7.73173 257.329 7.50791" fill="#E7E4DC"/>
<path d="M272.863 5.37151L275.078 11.8078H270.571L272.863 5.37151ZM271.384 0.149209L264.794 17.8508H268.481L269.578 14.7174H276.015L277.085 17.8508H280.772L274.161 0.149209H271.384Z" fill="#E7E4DC"/>
<path d="M294.598 8.89827C293.806 8.15222 292.792 7.73173 291.14 7.50791L288.973 7.18237C288.209 7.08063 287.675 6.83647 287.32 6.51093C286.938 6.16503 286.814 5.71741 286.814 5.24265C286.814 4.02185 287.702 3.00452 289.584 3.00452C290.779 3.00452 292.181 3.15373 293.299 4.22532L295.542 2.06179C293.987 0.596835 292.181 0 289.688 0C285.765 0 283.376 2.211 283.376 5.37151C283.376 6.8636 283.807 8.03014 284.675 8.85079C285.487 9.62396 286.584 10.0919 288.188 10.3157L290.348 10.6413C291.265 10.7634 291.619 10.9126 291.98 11.2381C292.362 11.6112 292.542 12.1063 292.542 12.7031C292.542 14.1206 291.424 14.9141 289.313 14.9141C287.661 14.9141 286.105 14.5411 284.959 13.422L282.668 15.6601C284.453 17.4235 286.536 18 289.286 18C293.105 18 296.007 16.0603 296.007 12.6285C296.007 11.0347 295.577 9.76639 294.605 8.89827" fill="#E7E4DC"/>
</svg>
